<svg width="115" height="101" viewBox="0 0 115 101" fill="none" xmlns="http://www.w3.org/2000/svg">
<mask id="mask0_222_844" style="mask-type:luminance" maskUnits="userSpaceOnUse" x="0" y="0" width="115" height="101">
<path d="M0 0.916992H115V100.917H0V0.916992Z" fill="white"/>
</mask>
<g mask="url(#mask0_222_844)">
<path fill-rule="evenodd" clip-rule="evenodd" d="M44.9681 69.0107H48.1035C49.4264 69.0107 50.515 70.0993 50.515 71.4222C50.515 72.7503 49.4264 73.8337 48.1035 73.8337H44.9681C43.64 73.8337 42.5566 72.7503 42.5566 71.4222C42.5566 70.0993 43.64 69.0107 44.9681 69.0107ZM38.5827 20.141C39.666 19.9014 40.4473 18.9326 40.4473 17.792C40.4473 16.5837 39.5462 15.5628 38.4004 15.3805H28.2754C26.9473 15.3805 25.8639 14.2972 25.8639 12.9691C25.8639 11.641 26.9473 10.5576 28.2754 10.5576H43.2806C44.6087 10.5576 45.6921 9.47428 45.6921 8.14616C45.6921 6.94303 44.7858 5.91699 43.64 5.73991H31.2285C29.9004 5.73991 28.8171 4.65137 28.8171 3.32845C28.8171 2.00033 29.9004 0.916992 31.2285 0.916992H110.234C112.645 0.916992 114.572 2.84408 114.572 5.25553V16.8857C114.572 19.2972 112.645 21.2243 110.234 21.2243H88.416C86.0046 21.2243 84.0775 23.1514 84.0775 25.5628V96.7347C84.0775 99.1462 82.1504 101.073 79.7389 101.073H59.6712C59.6139 100.891 59.6139 100.651 59.6139 100.469C59.6139 99.1462 60.6973 98.0576 62.0202 98.0576H65.64C66.9629 98.0576 68.0514 96.9743 68.0514 95.6514C68.0514 94.3232 66.9629 93.2399 65.64 93.2399H58.166C56.8379 93.2399 55.7546 92.1514 55.7546 90.8285C55.7546 89.5003 56.8379 88.417 58.166 88.417H51.9577H62.3223C63.6504 88.417 64.7337 87.3337 64.7337 86.0055C64.7337 84.6826 63.6504 83.5941 62.3223 83.5941H57.5619C56.2389 83.5941 55.1504 82.5107 55.1504 81.1878C55.1504 79.8597 56.2389 78.7764 57.5619 78.7764H67.6869C69.015 78.7764 70.0983 77.693 70.0983 76.3649C70.0983 75.0368 69.015 73.9535 67.6869 73.9535H54.5514C53.2233 73.9535 52.14 72.8701 52.14 71.542C52.14 70.2191 53.2233 69.1357 54.5514 69.1357H63.6504C64.9733 69.1357 66.0619 68.0472 66.0619 66.7243C66.0619 65.3962 64.9733 64.3128 63.6504 64.3128H51.4785C50.1504 64.3128 49.0671 63.2295 49.0671 61.9014C49.0671 60.5785 50.1504 59.4899 51.4785 59.4899H70.5775C71.9056 59.4899 72.9889 58.4066 72.9889 57.0837C72.9889 55.7555 71.9056 54.6722 70.5775 54.6722H59.1296C57.8066 54.6722 56.7181 53.5837 56.7181 52.2607C56.7181 50.9326 57.8066 49.8493 59.1296 49.8493H65.3379C66.6608 49.8493 67.7494 48.766 67.7494 47.4378C67.7494 46.1149 66.6608 45.0264 65.3379 45.0264H56.1191C54.791 45.0264 53.7077 43.943 53.7077 42.6201C53.7077 41.292 54.791 40.2087 56.1191 40.2087H71.1244C72.4473 40.2087 73.5306 39.1253 73.5306 37.7972C73.5306 36.4691 72.4473 35.3857 71.1244 35.3857H45.8744C44.5462 35.3857 43.4629 34.3024 43.4629 32.9743C43.4629 31.6514 44.5462 30.568 45.8744 30.568H63.3483C64.6764 30.568 65.7598 29.4795 65.7598 28.1566C65.7598 26.8285 64.6764 25.7451 63.3483 25.7451C52.8014 25.7451 42.3171 25.8024 31.7702 25.8024C30.4473 25.8024 29.3587 24.7191 29.3587 23.3962C29.3587 22.068 30.4473 20.9847 31.7702 20.9847H38.5827V20.141ZM41.7129 49.3076H48.6452C49.9681 49.3076 51.0566 50.391 51.0566 51.7191C51.0566 53.042 49.9681 54.1305 48.6452 54.1305H20.4421C19.1139 54.1305 18.0306 53.042 18.0306 51.7191C18.0306 50.391 19.1139 49.3076 20.4421 49.3076H41.7129ZM2.48372 10.5003H5.61914C6.94206 10.5003 8.02539 11.5837 8.02539 12.9066C8.02539 14.2347 6.94206 15.318 5.61914 15.318H2.48372C1.1556 15.318 0.0722656 14.2347 0.0722656 12.9066C0.0722656 11.5837 1.1556 10.5003 2.48372 10.5003ZM12.1868 10.5003H21.4056C22.7337 10.5003 23.8171 11.5837 23.8171 12.9066C23.8171 14.2347 22.7337 15.318 21.4056 15.318H12.1868C10.8587 15.318 9.77539 14.2347 9.77539 12.9066C9.71289 11.5837 10.8587 10.5003 12.1868 10.5003ZM47.4994 88.2347H50.2702C51.5983 88.2347 52.6816 89.3232 52.6816 90.6462C52.6816 91.9743 51.5983 93.0576 50.2702 93.0576H47.4994C46.1712 93.0576 45.0879 91.9743 45.0879 90.6462C45.0879 89.3232 46.1712 88.2347 47.4994 88.2347ZM37.6764 59.0107H43.64C44.9681 59.0107 46.0514 60.0941 46.0514 61.4222C46.0514 62.7451 44.9681 63.8285 43.64 63.8285H37.6764C36.3483 63.8285 35.265 62.7451 35.265 61.4222C35.265 60.0941 36.3483 59.0107 37.6764 59.0107ZM19.8379 20.141H22.0098C23.3327 20.141 24.4212 21.2243 24.4212 22.5524C24.4212 23.8753 23.3327 24.9587 22.0098 24.9587H19.8379C18.515 24.9587 17.4264 23.8753 17.4264 22.5524C17.4264 21.2243 18.515 20.141 19.8379 20.141ZM37.0723 78.4743H47.4369C48.765 78.4743 49.8483 79.5576 49.8483 80.8857C49.8483 82.2087 48.765 83.2972 47.4369 83.2972H37.0723C35.7494 83.2972 34.666 82.2087 34.666 80.8857C34.666 79.6201 35.7494 78.4743 37.0723 78.4743ZM27.6712 29.8441H37.0723C38.4004 29.8441 39.4837 30.9274 39.4837 32.2555C39.4837 33.5785 38.4004 34.6618 37.0723 34.6618H27.6712C26.3483 34.6618 25.265 33.5785 25.265 32.2555C25.265 30.9274 26.3483 29.8441 27.6712 29.8441Z" fill="black"/>
</g>
</svg>
