<svg width="326" height="100" viewBox="0 0 326 100" fill="none" xmlns="http://www.w3.org/2000/svg">
<g clip-path="url(#clip0_220_700)">
<mask id="mask0_220_700" style="mask-type:luminance" maskUnits="userSpaceOnUse" x="0" y="-1" width="116" height="101">
<path d="M0.328125 -0.0830078H115.328V99.917H0.328125V-0.0830078Z" fill="white"/>
</mask>
<g mask="url(#mask0_220_700)">
<path fill-rule="evenodd" clip-rule="evenodd" d="M45.2923 68.0107H48.4277C49.7559 68.0107 50.8392 69.0993 50.8392 70.4222C50.8392 71.7503 49.7559 72.8337 48.4277 72.8337H45.2923C43.9694 72.8337 42.8861 71.7503 42.8861 70.4222C42.8861 69.0993 43.9694 68.0107 45.2923 68.0107ZM38.9069 19.141C39.9902 18.9014 40.7767 17.9326 40.7767 16.792C40.7767 15.5837 39.8704 14.5628 38.7246 14.3805H28.5996C27.2767 14.3805 26.1934 13.2972 26.1934 11.9691C26.1934 10.641 27.2767 9.55762 28.5996 9.55762H43.6048C44.9329 9.55762 46.0163 8.47428 46.0163 7.14616C46.0163 5.94303 45.1152 4.91699 43.9694 4.73991H31.5527C30.2298 4.73991 29.1465 3.65137 29.1465 2.32845C29.1465 1.00033 30.2298 -0.0830078 31.5527 -0.0830078H110.558C112.969 -0.0830078 114.896 1.84408 114.896 4.25553V15.8857C114.896 18.2972 112.969 20.2243 110.558 20.2243H88.7454C86.334 20.2243 84.4069 22.1514 84.4069 24.5628V95.7347C84.4069 98.1462 82.4746 100.073 80.0684 100.073H60.0007C59.9382 99.891 59.9382 99.6514 59.9382 99.4691C59.9382 98.1462 61.0215 97.0576 62.3496 97.0576H65.9642C67.2923 97.0576 68.3757 95.9743 68.3757 94.6514C68.3757 93.3232 67.2923 92.2399 65.9642 92.2399H58.4902C57.1673 92.2399 56.0788 91.1514 56.0788 89.8285C56.0788 88.5003 57.1673 87.417 58.4902 87.417H52.2871H62.6517C63.9746 87.417 65.0579 86.3337 65.0579 85.0055C65.0579 83.6826 63.9746 82.5941 62.6517 82.5941H57.8913C56.5632 82.5941 55.4798 81.5107 55.4798 80.1878C55.4798 78.8597 56.5632 77.7764 57.8913 77.7764H68.0111C69.3392 77.7764 70.4225 76.693 70.4225 75.3649C70.4225 74.0368 69.3392 72.9535 68.0111 72.9535H54.8757C53.5527 72.9535 52.4642 71.8701 52.4642 70.542C52.4642 69.2191 53.5527 68.1357 54.8757 68.1357H63.9746C65.3027 68.1357 66.3861 67.0472 66.3861 65.7243C66.3861 64.3962 65.3027 63.3128 63.9746 63.3128H51.8027C50.4746 63.3128 49.3913 62.2295 49.3913 60.9014C49.3913 59.5785 50.4746 58.4899 51.8027 58.4899H70.9069C72.2298 58.4899 73.3184 57.4066 73.3184 56.0837C73.3184 54.7555 72.2298 53.6722 70.9069 53.6722H59.4538C58.1309 53.6722 57.0475 52.5837 57.0475 51.2607C57.0475 49.9326 58.1309 48.8493 59.4538 48.8493H65.6621C66.9902 48.8493 68.0736 47.766 68.0736 46.4378C68.0736 45.1149 66.9902 44.0264 65.6621 44.0264H56.4434C55.1152 44.0264 54.0319 42.943 54.0319 41.6201C54.0319 40.292 55.1152 39.2087 56.4434 39.2087H71.4486C72.7715 39.2087 73.86 38.1253 73.86 36.7972C73.86 35.4691 72.7715 34.3857 71.4486 34.3857H46.1986C44.8704 34.3857 43.7871 33.3024 43.7871 31.9743C43.7871 30.6514 44.8704 29.568 46.1986 29.568H63.6725C65.0007 29.568 66.084 28.4795 66.084 27.1566C66.084 25.8285 65.0007 24.7451 63.6725 24.7451C53.1309 24.7451 42.6413 24.8024 32.0944 24.8024C30.7715 24.8024 29.6882 23.7191 29.6882 22.3962C29.6882 21.068 30.7715 19.9847 32.0944 19.9847H38.9069V19.141ZM42.0423 48.3076H48.9694C50.2975 48.3076 51.3809 49.391 51.3809 50.7191C51.3809 52.042 50.2975 53.1305 48.9694 53.1305H20.7663C19.4434 53.1305 18.3548 52.042 18.3548 50.7191C18.3548 49.391 19.4434 48.3076 20.7663 48.3076H42.0423ZM2.80794 9.50033H5.94336C7.26628 9.50033 8.35482 10.5837 8.35482 11.9066C8.35482 13.2347 7.26628 14.318 5.94336 14.318H2.80794C1.48503 14.318 0.396484 13.2347 0.396484 11.9066C0.396484 10.5837 1.48503 9.50033 2.80794 9.50033ZM12.5111 9.50033H21.7298C23.0579 9.50033 24.1413 10.5837 24.1413 11.9066C24.1413 13.2347 23.0579 14.318 21.7298 14.318H12.5111C11.1882 14.318 10.0996 13.2347 10.0996 11.9066C10.0423 10.5837 11.1882 9.50033 12.5111 9.50033ZM47.8236 87.2347H50.5996C51.9225 87.2347 53.0059 88.3232 53.0059 89.6462C53.0059 90.9743 51.9225 92.0576 50.5996 92.0576H47.8236C46.5007 92.0576 45.4173 90.9743 45.4173 89.6462C45.4173 88.3232 46.5007 87.2347 47.8236 87.2347ZM38.0007 58.0107H43.9694C45.2923 58.0107 46.3809 59.0941 46.3809 60.4222C46.3809 61.7451 45.2923 62.8285 43.9694 62.8285H38.0007C36.6777 62.8285 35.5944 61.7451 35.5944 60.4222C35.5944 59.0941 36.6777 58.0107 38.0007 58.0107ZM20.1673 19.141H22.334C23.6621 19.141 24.7454 20.2243 24.7454 21.5524C24.7454 22.8753 23.6621 23.9587 22.334 23.9587H20.1673C18.8392 23.9587 17.7559 22.8753 17.7559 21.5524C17.7559 20.2243 18.8392 19.141 20.1673 19.141ZM37.4017 77.4743H47.7663C49.0892 77.4743 50.1777 78.5576 50.1777 79.8857C50.1777 81.2087 49.0892 82.2972 47.7663 82.2972H37.4017C36.0736 82.2972 34.9902 81.2087 34.9902 79.8857C34.9902 78.6201 36.0736 77.4743 37.4017 77.4743ZM28.0007 28.8441H37.4017C38.7246 28.8441 39.8079 29.9274 39.8079 31.2555C39.8079 32.5785 38.7246 33.6618 37.4017 33.6618H28.0007C26.6725 33.6618 25.5892 32.5785 25.5892 31.2555C25.5892 29.9274 26.6725 28.8441 28.0007 28.8441Z" fill="white"/>
</g>
<path d="M110.469 69.5179V40.9346H131.51V45.9137H117.052V52.9137H128.302V57.8929H117.052V64.5387H131.51V69.5179H110.469Z" fill="white"/>
<path d="M159.026 69.8102C153.969 69.8102 150.109 68.2008 147.443 64.9769C145.26 62.3415 144.172 59.0811 144.172 55.2061V55.0186C144.172 51.1019 145.26 47.8258 147.443 45.1852C150.078 41.9925 153.943 40.3936 159.026 40.3936C162.828 40.3936 165.969 41.2581 168.443 42.9769C170.911 44.6852 172.401 46.9717 172.901 49.8311H166.047C165.891 48.3623 165.182 47.2425 163.922 46.4769C162.672 45.7165 161.036 45.3311 159.026 45.3311C156.484 45.3311 154.469 46.2477 152.984 48.0811C151.495 49.904 150.755 52.279 150.755 55.2061C150.755 58.1123 151.505 60.4508 153.005 62.2269C154.505 63.9925 156.51 64.8727 159.026 64.8727C161.036 64.8727 162.672 64.4925 163.922 63.7269C165.182 62.9665 165.891 61.8467 166.047 60.3727H172.901C172.401 63.2061 170.906 65.4925 168.422 67.2269C165.932 68.9508 162.802 69.8102 159.026 69.8102Z" fill="white"/>
<path d="M186.281 69.5179V40.9346H192.865V53.2471H204.635V40.9346H211.24V69.5179H204.635V58.3304H192.865V69.5179H186.281Z" fill="white"/>
<path d="M225.605 69.5179V40.9346H232.189V64.5387H246.897V69.5179H225.605Z" fill="white"/>
<path d="M258.086 69.5179L267.711 40.9346H278.648L288.232 69.5179H281.294L279.294 63.5179H267.065L265.023 69.5179H258.086ZM268.773 58.3721H277.523L273.169 45.3929L268.773 58.3721Z" fill="white"/>
<path d="M300.637 69.5179V40.9346H312.449C316.225 40.9346 319.116 41.695 321.116 43.2054C323.126 44.721 324.137 46.7471 324.137 49.2887C324.137 50.3721 323.913 51.4919 323.47 52.6429C323.022 53.7992 322.35 54.5075 321.449 54.7679C322.783 55.2262 323.793 56.096 324.491 57.3721C325.199 58.6377 325.553 59.9137 325.553 61.2054C325.553 63.721 324.543 65.7367 322.533 67.2471C320.533 68.7627 317.642 69.5179 313.866 69.5179H300.637ZM307.22 52.9971H312.449C315.668 52.9971 317.283 51.8304 317.283 49.4971C317.283 48.32 316.85 47.4294 315.991 46.8304C315.126 46.221 313.949 45.9137 312.449 45.9137H307.22V52.9971ZM307.22 64.5387H313.908C317.142 64.5387 318.762 63.4294 318.762 61.2054C318.762 59.945 318.355 59.096 317.553 58.6637C316.762 58.221 315.543 57.9971 313.908 57.9971H307.22V64.5387Z" fill="white"/>
<path d="M113.594 85.9919C112.469 85.9919 111.604 85.6377 111.01 84.9294C110.521 84.3356 110.281 83.6064 110.281 82.7419V82.7002C110.281 81.8408 110.521 81.1169 111.01 80.5335C111.594 79.8148 112.453 79.4502 113.594 79.4502C114.427 79.4502 115.12 79.6481 115.677 80.0335C116.229 80.4085 116.557 80.9189 116.656 81.5544H115.156C115.115 81.2367 114.953 80.9919 114.677 80.8252C114.396 80.6481 114.036 80.5544 113.594 80.5544C113.021 80.5544 112.573 80.7575 112.24 81.1585C111.906 81.5648 111.74 82.0908 111.74 82.7419C111.74 83.3981 111.906 83.9242 112.24 84.3252C112.573 84.7158 113.021 84.9085 113.594 84.9085C114.036 84.9085 114.396 84.8252 114.677 84.6585C114.953 84.4814 115.115 84.2314 115.156 83.9085H116.656C116.557 84.5335 116.229 85.0439 115.677 85.4294C115.12 85.8044 114.427 85.9919 113.594 85.9919Z" fill="white"/>
<path d="M123.508 85.9294V79.5752H126.383C127.216 79.5752 127.852 79.7939 128.299 80.221C128.742 80.6533 128.966 81.1794 128.966 81.8044C128.966 82.1794 128.862 82.5544 128.654 82.9294C128.445 83.2939 128.143 83.5648 127.758 83.7419L128.779 85.9294H127.154L126.258 84.0335H124.966V85.9294H123.508ZM124.966 82.9294H126.404C126.721 82.9294 126.987 82.8356 127.195 82.6377C127.404 82.4294 127.508 82.1585 127.508 81.8252C127.508 81.4814 127.404 81.2002 127.195 80.9919C126.987 80.7835 126.721 80.6794 126.404 80.6794H124.966V82.9294Z" fill="white"/>
<path d="M135.713 85.9294V79.5752H140.38V80.6794H137.171V82.2419H139.671V83.346H137.171V84.8252H140.38V85.9294H135.713Z" fill="white"/>
<path d="M146.842 85.9294L148.967 79.5752H151.404L153.529 85.9294H151.988L151.55 84.596H148.842L148.383 85.9294H146.842ZM149.217 83.4502H151.154L150.196 80.5752L149.217 83.4502Z" fill="white"/>
<path d="M161.699 85.9294V80.6794H159.762V79.5752H165.074V80.6794H163.158V85.9294H161.699Z" fill="white"/>
<path d="M171.754 85.9294V79.5752H173.212V85.9294H171.754Z" fill="white"/>
<path d="M182.043 85.9294L179.855 79.5752H181.397L183.272 84.9502L185.147 79.5752H186.689L184.48 85.9294H182.043Z" fill="white"/>
<path d="M193.312 85.9294V79.5752H197.979V80.6794H194.771V82.2419H197.271V83.346H194.771V84.8252H197.979V85.9294H193.312Z" fill="white"/>
<path d="M212.748 85.9294L212.852 84.4502C212.863 84.1585 212.883 83.7992 212.915 83.3669C212.915 83.3669 212.988 82.1064 213.144 79.5752H215.602L216.915 83.7419L218.248 79.5752H220.706C220.758 80.4658 220.811 81.2002 220.852 81.7835C220.904 82.8408 220.956 83.7314 220.998 84.4502C221.008 84.5908 221.019 84.7731 221.019 84.9919C221.029 85.2002 221.045 85.4033 221.061 85.596C221.071 85.7783 221.081 85.8877 221.081 85.9294H219.602L219.311 80.846L217.686 85.9294H216.165L214.54 80.846L214.248 85.9294H212.748Z" fill="white"/>
<path d="M228.041 85.9294V79.5752H229.499V85.9294H228.041Z" fill="white"/>
<path d="M236.58 85.9294V79.5752H238.33L241.143 84.2002V79.5752H242.622V85.9294H240.622L238.038 81.7002V85.9294H236.58Z" fill="white"/>
<path d="M249.676 85.9294V79.5752H252.155C253.28 79.5752 254.134 79.9242 254.717 80.6169C255.186 81.2002 255.426 81.9085 255.426 82.7419C255.426 83.5492 255.186 84.2419 254.717 84.8252C254.118 85.5648 253.264 85.9294 252.155 85.9294H249.676ZM251.134 84.8252H252.363C252.874 84.8252 253.27 84.6481 253.551 84.2835C253.827 83.9085 253.967 83.3981 253.967 82.7419C253.967 81.3669 253.431 80.6794 252.363 80.6794H251.134V84.8252Z" fill="white"/>
<path d="M113.594 97.7458C112.469 97.7458 111.604 97.3916 111.01 96.6833C110.521 96.0895 110.281 95.3604 110.281 94.4958V94.4541C110.281 93.5947 110.521 92.8708 111.01 92.2874C111.594 91.5687 112.453 91.2041 113.594 91.2041C114.427 91.2041 115.12 91.402 115.677 91.7874C116.229 92.1624 116.557 92.6729 116.656 93.3083H115.156C115.115 92.9906 114.953 92.7458 114.677 92.5791C114.396 92.402 114.036 92.3083 113.594 92.3083C113.021 92.3083 112.573 92.5114 112.24 92.9124C111.906 93.3187 111.74 93.8447 111.74 94.4958C111.74 95.152 111.906 95.6781 112.24 96.0791C112.573 96.4697 113.021 96.6624 113.594 96.6624C114.036 96.6624 114.396 96.5791 114.677 96.4124C114.953 96.2354 115.115 95.9854 115.156 95.6624H116.656C116.557 96.2874 116.229 96.7979 115.677 97.1833C115.12 97.5583 114.427 97.7458 113.594 97.7458Z" fill="white"/>
<path d="M123.508 97.6833V91.3291H126.383C127.216 91.3291 127.852 91.5479 128.299 91.9749C128.742 92.4072 128.966 92.9333 128.966 93.5583C128.966 93.9333 128.862 94.3083 128.654 94.6833C128.445 95.0479 128.143 95.3187 127.758 95.4958L128.779 97.6833H127.154L126.258 95.7874H124.966V97.6833H123.508ZM124.966 94.6833H126.404C126.721 94.6833 126.987 94.5895 127.195 94.3916C127.404 94.1833 127.508 93.9124 127.508 93.5791C127.508 93.2354 127.404 92.9541 127.195 92.7458C126.987 92.5374 126.721 92.4333 126.404 92.4333H124.966V94.6833Z" fill="white"/>
<path d="M135.713 97.6833V91.3291H140.38V92.4333H137.171V93.9958H139.671V95.0999H137.171V96.5791H140.38V97.6833H135.713Z" fill="white"/>
<path d="M146.842 97.6833L148.967 91.3291H151.404L153.529 97.6833H151.988L151.55 96.3499H148.842L148.383 97.6833H146.842ZM149.217 95.2041H151.154L150.196 92.3291L149.217 95.2041Z" fill="white"/>
<path d="M161.699 97.6833V92.4333H159.762V91.3291H165.074V92.4333H163.158V97.6833H161.699Z" fill="white"/>
<path d="M171.754 97.6833V91.3291H173.212V97.6833H171.754Z" fill="white"/>
<path d="M182.043 97.6833L179.855 91.3291H181.397L183.272 96.7041L185.147 91.3291H186.689L184.48 97.6833H182.043Z" fill="white"/>
<path d="M193.312 97.6833V91.3291H197.979V92.4333H194.771V93.9958H197.271V95.0999H194.771V96.5791H197.979V97.6833H193.312Z" fill="white"/>
<path d="M213.727 97.6833L212.436 91.3291H213.977L214.915 96.4749L216.165 91.3291H217.581L218.852 96.4749L219.769 91.3291H221.311L220.019 97.6833H217.831L216.873 93.9541L215.915 97.6833H213.727Z" fill="white"/>
<path d="M230.986 97.7458C229.871 97.7458 229.027 97.3864 228.444 96.6624C227.954 96.0687 227.715 95.3656 227.715 94.5583C227.715 93.7145 227.954 92.9749 228.444 92.3499C229.027 91.5895 229.871 91.2041 230.986 91.2041C232.079 91.2041 232.934 91.5895 233.548 92.3499C234.017 92.9645 234.257 93.6989 234.257 94.5583C234.257 95.3812 234.017 96.0791 233.548 96.6624C232.934 97.3864 232.079 97.7458 230.986 97.7458ZM229.652 96.0791C229.986 96.4697 230.428 96.6624 230.986 96.6624C231.538 96.6624 231.975 96.4697 232.298 96.0791C232.616 95.6937 232.777 95.1833 232.777 94.5583C232.777 93.9072 232.616 93.3708 232.298 92.9541C231.975 92.527 231.538 92.3083 230.986 92.3083C230.428 92.3083 229.986 92.527 229.652 92.9541C229.329 93.3708 229.173 93.9072 229.173 94.5583C229.173 95.1833 229.329 95.6937 229.652 96.0791Z" fill="white"/>
<path d="M241.094 97.6833V91.3291H243.969C244.802 91.3291 245.438 91.5479 245.885 91.9749C246.328 92.4072 246.552 92.9333 246.552 93.5583C246.552 93.9333 246.448 94.3083 246.24 94.6833C246.031 95.0479 245.729 95.3187 245.344 95.4958L246.365 97.6833H244.74L243.844 95.7874H242.552V97.6833H241.094ZM242.552 94.6833H243.99C244.307 94.6833 244.573 94.5895 244.781 94.3916C244.99 94.1833 245.094 93.9124 245.094 93.5791C245.094 93.2354 244.99 92.9541 244.781 92.7458C244.573 92.5374 244.307 92.4333 243.99 92.4333H242.552V94.6833Z" fill="white"/>
<path d="M253.299 97.6833V91.3291H254.757V93.9958L257.34 91.3291H259.215L257.257 93.3708L259.549 97.6833H257.882L256.174 94.4749L254.757 95.9333V97.6833H253.299Z" fill="white"/>
<path d="M269.063 97.7458C268.547 97.7458 268.068 97.6833 267.625 97.5583C267.177 97.4333 266.797 97.2197 266.479 96.9124C266.172 96.6104 266.021 96.2354 266.021 95.7874H267.813C267.813 96.3708 268.229 96.6624 269.063 96.6624C269.563 96.6624 269.901 96.6104 270.083 96.4958C270.276 96.3708 270.375 96.1624 270.375 95.8708C270.375 95.8031 270.359 95.7406 270.333 95.6833C270.302 95.6156 270.25 95.5583 270.167 95.5166C270.094 95.4645 270.026 95.4229 269.958 95.3916C269.901 95.3499 269.802 95.3187 269.667 95.2874C269.526 95.2458 269.422 95.2197 269.354 95.2041C269.281 95.1937 269.167 95.1729 269 95.1416C268.901 95.1156 268.823 95.0947 268.771 95.0791C268.422 95.027 268.146 94.9749 267.938 94.9333C267.74 94.8812 267.5 94.7979 267.208 94.6833C266.927 94.5739 266.714 94.4541 266.563 94.3291C266.406 94.2041 266.276 94.0374 266.167 93.8291C266.052 93.6104 266 93.3604 266 93.0791C266 92.5114 266.193 92.0739 266.583 91.7666C267.052 91.3916 267.792 91.2041 268.792 91.2041C269.302 91.2041 269.776 91.277 270.208 91.4124C270.635 91.5374 271 91.7562 271.292 92.0583C271.583 92.3656 271.729 92.7406 271.729 93.1833H269.938C269.938 92.8656 269.839 92.6416 269.646 92.5166C269.464 92.3812 269.188 92.3083 268.813 92.3083C268.365 92.3083 268.031 92.3708 267.813 92.4958C267.604 92.6208 267.5 92.7874 267.5 92.9958C267.5 93.1208 267.542 93.2354 267.625 93.3291C267.708 93.4281 267.833 93.5114 268 93.5791C268.177 93.6364 268.344 93.6833 268.5 93.7249C268.651 93.7562 268.854 93.7979 269.104 93.8499C269.13 93.8656 269.151 93.8708 269.167 93.8708C269.177 93.8708 269.198 93.8812 269.229 93.8916C269.271 93.8916 269.297 93.8916 269.313 93.8916C269.656 93.9645 269.964 94.0374 270.229 94.1208C270.505 94.2041 270.776 94.3239 271.042 94.4749C271.302 94.6156 271.51 94.7979 271.667 95.0166C271.818 95.2249 271.896 95.4697 271.896 95.7458C271.896 96.3864 271.688 96.8656 271.271 97.1833C270.797 97.5583 270.063 97.7458 269.063 97.7458Z" fill="white"/>
</g>
<defs>
<clipPath id="clip0_220_700">
<rect width="326" height="100" fill="white"/>
</clipPath>
</defs>
</svg>
