<svg xmlns="http://www.w3.org/2000/svg" xmlns:xlink="http://www.w3.org/1999/xlink" width="500" zoomAndPan="magnify" viewBox="0 0 375 374.999991" height="500" preserveAspectRatio="xMidYMid meet" version="1.0"><defs><g/><radialGradient gradientTransform="matrix(1, 0, 0, 1, 0.0000045, 0)" gradientUnits="userSpaceOnUse" r="530.33023" cx="0" id="bbc7d205ac" cy="0" fx="0" fy="0"><stop stop-opacity="1" stop-color="rgb(0.0167847%, 0.0473022%, 0.111389%)" offset="0"/><stop stop-opacity="1" stop-color="rgb(0.050354%, 0.141907%, 0.334167%)" offset="0.00390625"/><stop stop-opacity="1" stop-color="rgb(0.0839233%, 0.236511%, 0.558472%)" offset="0.0078125"/><stop stop-opacity="1" stop-color="rgb(0.117493%, 0.331116%, 0.782776%)" offset="0.0117188"/><stop stop-opacity="1" stop-color="rgb(0.151062%, 0.42572%, 1.005554%)" offset="0.015625"/><stop stop-opacity="1" stop-color="rgb(0.184631%, 0.521851%, 1.229858%)" offset="0.0195312"/><stop stop-opacity="1" stop-color="rgb(0.218201%, 0.616455%, 1.454163%)" offset="0.0234375"/><stop stop-opacity="1" stop-color="rgb(0.25177%, 0.71106%, 1.676941%)" offset="0.0273438"/><stop stop-opacity="1" stop-color="rgb(0.285339%, 0.805664%, 1.901245%)" offset="0.03125"/><stop stop-opacity="1" stop-color="rgb(0.318909%, 0.900269%, 2.125549%)" offset="0.0351562"/><stop stop-opacity="1" stop-color="rgb(0.352478%, 0.996399%, 2.348328%)" offset="0.0390625"/><stop stop-opacity="1" stop-color="rgb(0.386047%, 1.091003%, 2.572632%)" offset="0.0429688"/><stop stop-opacity="1" stop-color="rgb(0.419617%, 1.185608%, 2.796936%)" offset="0.046875"/><stop stop-opacity="1" stop-color="rgb(0.453186%, 1.280212%, 3.019714%)" offset="0.0507812"/><stop stop-opacity="1" stop-color="rgb(0.486755%, 1.374817%, 3.244019%)" offset="0.0546875"/><stop stop-opacity="1" stop-color="rgb(0.520325%, 1.470947%, 3.468323%)" offset="0.0585938"/><stop stop-opacity="1" stop-color="rgb(0.553894%, 1.565552%, 3.692627%)" offset="0.0625"/><stop stop-opacity="1" stop-color="rgb(0.587463%, 1.660156%, 3.915405%)" offset="0.0664062"/><stop stop-opacity="1" stop-color="rgb(0.621033%, 1.754761%, 4.139709%)" offset="0.0703125"/><stop stop-opacity="1" stop-color="rgb(0.654602%, 1.849365%, 4.364014%)" offset="0.0742188"/><stop stop-opacity="1" stop-color="rgb(0.688171%, 1.945496%, 4.586792%)" offset="0.078125"/><stop stop-opacity="1" stop-color="rgb(0.721741%, 2.0401%, 4.811096%)" offset="0.0820312"/><stop stop-opacity="1" stop-color="rgb(0.75531%, 2.134705%, 5.0354%)" offset="0.0859375"/><stop stop-opacity="1" stop-color="rgb(0.788879%, 2.229309%, 5.258179%)" offset="0.0898438"/><stop stop-opacity="1" stop-color="rgb(0.822449%, 2.323914%, 5.482483%)" offset="0.09375"/><stop stop-opacity="1" stop-color="rgb(0.856018%, 2.420044%, 5.706787%)" offset="0.0976562"/><stop stop-opacity="1" stop-color="rgb(0.889587%, 2.514648%, 5.929565%)" offset="0.101562"/><stop stop-opacity="1" stop-color="rgb(0.923157%, 2.609253%, 6.15387%)" offset="0.105469"/><stop stop-opacity="1" stop-color="rgb(0.956726%, 2.703857%, 6.378174%)" offset="0.109375"/><stop stop-opacity="1" stop-color="rgb(0.990295%, 2.799988%, 6.600952%)" offset="0.113281"/><stop stop-opacity="1" stop-color="rgb(1.023865%, 2.894592%, 6.825256%)" offset="0.117188"/><stop stop-opacity="1" stop-color="rgb(1.057434%, 2.989197%, 7.049561%)" offset="0.121094"/><stop stop-opacity="1" stop-color="rgb(1.091003%, 3.083801%, 7.273865%)" offset="0.125"/><stop stop-opacity="1" stop-color="rgb(1.124573%, 3.178406%, 7.496643%)" offset="0.128906"/><stop stop-opacity="1" stop-color="rgb(1.158142%, 3.274536%, 7.720947%)" offset="0.132812"/><stop stop-opacity="1" stop-color="rgb(1.191711%, 3.369141%, 7.945251%)" offset="0.136719"/><stop stop-opacity="1" stop-color="rgb(1.225281%, 3.463745%, 8.16803%)" offset="0.140625"/><stop stop-opacity="1" stop-color="rgb(1.25885%, 3.55835%, 8.392334%)" offset="0.144531"/><stop stop-opacity="1" stop-color="rgb(1.292419%, 3.652954%, 8.616638%)" offset="0.148438"/><stop stop-opacity="1" stop-color="rgb(1.325989%, 3.749084%, 8.839417%)" offset="0.152344"/><stop stop-opacity="1" stop-color="rgb(1.359558%, 3.843689%, 9.063721%)" offset="0.15625"/><stop stop-opacity="1" stop-color="rgb(1.393127%, 3.938293%, 9.288025%)" offset="0.160156"/><stop stop-opacity="1" stop-color="rgb(1.426697%, 4.032898%, 9.510803%)" offset="0.164062"/><stop stop-opacity="1" stop-color="rgb(1.460266%, 4.127502%, 9.735107%)" offset="0.167969"/><stop stop-opacity="1" stop-color="rgb(1.493835%, 4.223633%, 9.959412%)" offset="0.171875"/><stop stop-opacity="1" stop-color="rgb(1.527405%, 4.318237%, 10.18219%)" offset="0.175781"/><stop stop-opacity="1" stop-color="rgb(1.560974%, 4.412842%, 10.406494%)" offset="0.179688"/><stop stop-opacity="1" stop-color="rgb(1.594543%, 4.507446%, 10.630798%)" offset="0.183594"/><stop stop-opacity="1" stop-color="rgb(1.628113%, 4.602051%, 10.855103%)" offset="0.1875"/><stop stop-opacity="1" stop-color="rgb(1.661682%, 4.698181%, 11.077881%)" offset="0.191406"/><stop stop-opacity="1" stop-color="rgb(1.695251%, 4.792786%, 11.302185%)" offset="0.195312"/><stop stop-opacity="1" stop-color="rgb(1.728821%, 4.88739%, 11.526489%)" offset="0.199219"/><stop stop-opacity="1" stop-color="rgb(1.76239%, 4.981995%, 11.749268%)" offset="0.203125"/><stop stop-opacity="1" stop-color="rgb(1.795959%, 5.078125%, 11.973572%)" offset="0.207031"/><stop stop-opacity="1" stop-color="rgb(1.829529%, 5.172729%, 12.197876%)" offset="0.210938"/><stop stop-opacity="1" stop-color="rgb(1.863098%, 5.267334%, 12.420654%)" offset="0.214844"/><stop stop-opacity="1" stop-color="rgb(1.896667%, 5.361938%, 12.644958%)" offset="0.21875"/><stop stop-opacity="1" stop-color="rgb(1.930237%, 5.456543%, 12.869263%)" offset="0.222656"/><stop stop-opacity="1" stop-color="rgb(1.963806%, 5.552673%, 13.092041%)" offset="0.226562"/><stop stop-opacity="1" stop-color="rgb(1.997375%, 5.647278%, 13.316345%)" offset="0.230469"/><stop stop-opacity="1" stop-color="rgb(2.030945%, 5.741882%, 13.540649%)" offset="0.234375"/><stop stop-opacity="1" stop-color="rgb(2.064514%, 5.836487%, 13.763428%)" offset="0.238281"/><stop stop-opacity="1" stop-color="rgb(2.098083%, 5.931091%, 13.987732%)" offset="0.242188"/><stop stop-opacity="1" stop-color="rgb(2.133179%, 6.027222%, 14.212036%)" offset="0.246094"/><stop stop-opacity="1" stop-color="rgb(2.166748%, 6.121826%, 14.43634%)" offset="0.25"/><stop stop-opacity="1" stop-color="rgb(2.200317%, 6.216431%, 14.659119%)" offset="0.253906"/><stop stop-opacity="1" stop-color="rgb(2.233887%, 6.311035%, 14.883423%)" offset="0.257812"/><stop stop-opacity="1" stop-color="rgb(2.267456%, 6.40564%, 15.107727%)" offset="0.261719"/><stop stop-opacity="1" stop-color="rgb(2.301025%, 6.50177%, 15.330505%)" offset="0.265625"/><stop stop-opacity="1" stop-color="rgb(2.334595%, 6.596375%, 15.55481%)" offset="0.269531"/><stop stop-opacity="1" stop-color="rgb(2.368164%, 6.690979%, 15.779114%)" offset="0.273438"/><stop stop-opacity="1" stop-color="rgb(2.401733%, 6.785583%, 16.001892%)" offset="0.277344"/><stop stop-opacity="1" stop-color="rgb(2.435303%, 6.880188%, 16.226196%)" offset="0.28125"/><stop stop-opacity="1" stop-color="rgb(2.468872%, 6.976318%, 16.4505%)" offset="0.285156"/><stop stop-opacity="1" stop-color="rgb(2.502441%, 7.070923%, 16.673279%)" offset="0.289062"/><stop stop-opacity="1" stop-color="rgb(2.536011%, 7.165527%, 16.897583%)" offset="0.292969"/><stop stop-opacity="1" stop-color="rgb(2.56958%, 7.260132%, 17.121887%)" offset="0.296875"/><stop stop-opacity="1" stop-color="rgb(2.603149%, 7.356262%, 17.344666%)" offset="0.300781"/><stop stop-opacity="1" stop-color="rgb(2.636719%, 7.450867%, 17.56897%)" offset="0.304688"/><stop stop-opacity="1" stop-color="rgb(2.670288%, 7.545471%, 17.793274%)" offset="0.308594"/><stop stop-opacity="1" stop-color="rgb(2.703857%, 7.640076%, 18.017578%)" offset="0.3125"/><stop stop-opacity="1" stop-color="rgb(2.737427%, 7.73468%, 18.240356%)" offset="0.316406"/><stop stop-opacity="1" stop-color="rgb(2.770996%, 7.830811%, 18.464661%)" offset="0.320312"/><stop stop-opacity="1" stop-color="rgb(2.804565%, 7.925415%, 18.688965%)" offset="0.324219"/><stop stop-opacity="1" stop-color="rgb(2.838135%, 8.02002%, 18.911743%)" offset="0.328125"/><stop stop-opacity="1" stop-color="rgb(2.871704%, 8.114624%, 19.136047%)" offset="0.332031"/><stop stop-opacity="1" stop-color="rgb(2.905273%, 8.209229%, 19.360352%)" offset="0.335938"/><stop stop-opacity="1" stop-color="rgb(2.938843%, 8.305359%, 19.58313%)" offset="0.339844"/><stop stop-opacity="1" stop-color="rgb(2.972412%, 8.399963%, 19.807434%)" offset="0.34375"/><stop stop-opacity="1" stop-color="rgb(3.005981%, 8.494568%, 20.031738%)" offset="0.347656"/><stop stop-opacity="1" stop-color="rgb(3.039551%, 8.589172%, 20.254517%)" offset="0.351562"/><stop stop-opacity="1" stop-color="rgb(3.07312%, 8.683777%, 20.478821%)" offset="0.355469"/><stop stop-opacity="1" stop-color="rgb(3.106689%, 8.779907%, 20.703125%)" offset="0.359375"/><stop stop-opacity="1" stop-color="rgb(3.140259%, 8.874512%, 20.925903%)" offset="0.363281"/><stop stop-opacity="1" stop-color="rgb(3.173828%, 8.969116%, 21.150208%)" offset="0.367188"/><stop stop-opacity="1" stop-color="rgb(3.207397%, 9.063721%, 21.374512%)" offset="0.371094"/><stop stop-opacity="1" stop-color="rgb(3.240967%, 9.158325%, 21.598816%)" offset="0.375"/><stop stop-opacity="1" stop-color="rgb(3.274536%, 9.254456%, 21.821594%)" offset="0.378906"/><stop stop-opacity="1" stop-color="rgb(3.308105%, 9.34906%, 22.045898%)" offset="0.382812"/><stop stop-opacity="1" stop-color="rgb(3.341675%, 9.443665%, 22.270203%)" offset="0.386719"/><stop stop-opacity="1" stop-color="rgb(3.375244%, 9.538269%, 22.492981%)" offset="0.390625"/><stop stop-opacity="1" stop-color="rgb(3.408813%, 9.634399%, 22.717285%)" offset="0.394531"/><stop stop-opacity="1" stop-color="rgb(3.442383%, 9.729004%, 22.941589%)" offset="0.398438"/><stop stop-opacity="1" stop-color="rgb(3.475952%, 9.823608%, 23.164368%)" offset="0.402344"/><stop stop-opacity="1" stop-color="rgb(3.509521%, 9.918213%, 23.388672%)" offset="0.40625"/><stop stop-opacity="1" stop-color="rgb(3.543091%, 10.012817%, 23.612976%)" offset="0.410156"/><stop stop-opacity="1" stop-color="rgb(3.57666%, 10.108948%, 23.835754%)" offset="0.414062"/><stop stop-opacity="1" stop-color="rgb(3.610229%, 10.203552%, 24.060059%)" offset="0.417969"/><stop stop-opacity="1" stop-color="rgb(3.643799%, 10.298157%, 24.284363%)" offset="0.421875"/><stop stop-opacity="1" stop-color="rgb(3.677368%, 10.392761%, 24.507141%)" offset="0.425781"/><stop stop-opacity="1" stop-color="rgb(3.710938%, 10.487366%, 24.731445%)" offset="0.429688"/><stop stop-opacity="1" stop-color="rgb(3.744507%, 10.583496%, 24.95575%)" offset="0.433594"/><stop stop-opacity="1" stop-color="rgb(3.778076%, 10.678101%, 25.180054%)" offset="0.4375"/><stop stop-opacity="1" stop-color="rgb(3.811646%, 10.772705%, 25.402832%)" offset="0.441406"/><stop stop-opacity="1" stop-color="rgb(3.845215%, 10.86731%, 25.627136%)" offset="0.445312"/><stop stop-opacity="1" stop-color="rgb(3.878784%, 10.961914%, 25.85144%)" offset="0.449219"/><stop stop-opacity="1" stop-color="rgb(3.912354%, 11.058044%, 26.074219%)" offset="0.453125"/><stop stop-opacity="1" stop-color="rgb(3.945923%, 11.152649%, 26.298523%)" offset="0.457031"/><stop stop-opacity="1" stop-color="rgb(3.979492%, 11.247253%, 26.522827%)" offset="0.460938"/><stop stop-opacity="1" stop-color="rgb(4.013062%, 11.341858%, 26.745605%)" offset="0.464844"/><stop stop-opacity="1" stop-color="rgb(4.046631%, 11.436462%, 26.96991%)" offset="0.46875"/><stop stop-opacity="1" stop-color="rgb(4.0802%, 11.532593%, 27.194214%)" offset="0.472656"/><stop stop-opacity="1" stop-color="rgb(4.11377%, 11.627197%, 27.416992%)" offset="0.476562"/><stop stop-opacity="1" stop-color="rgb(4.147339%, 11.721802%, 27.641296%)" offset="0.480469"/><stop stop-opacity="1" stop-color="rgb(4.180908%, 11.816406%, 27.865601%)" offset="0.484375"/><stop stop-opacity="1" stop-color="rgb(4.216003%, 11.912537%, 28.089905%)" offset="0.488281"/><stop stop-opacity="1" stop-color="rgb(4.249573%, 12.007141%, 28.312683%)" offset="0.492188"/><stop stop-opacity="1" stop-color="rgb(4.283142%, 12.101746%, 28.536987%)" offset="0.496094"/><stop stop-opacity="1" stop-color="rgb(4.316711%, 12.19635%, 28.761292%)" offset="0.5"/><stop stop-opacity="1" stop-color="rgb(4.350281%, 12.290955%, 28.98407%)" offset="0.503906"/><stop stop-opacity="1" stop-color="rgb(4.38385%, 12.387085%, 29.208374%)" offset="0.507812"/><stop stop-opacity="1" stop-color="rgb(4.417419%, 12.481689%, 29.432678%)" offset="0.511719"/><stop stop-opacity="1" stop-color="rgb(4.450989%, 12.576294%, 29.655457%)" offset="0.515625"/><stop stop-opacity="1" stop-color="rgb(4.484558%, 12.670898%, 29.879761%)" offset="0.519531"/><stop stop-opacity="1" stop-color="rgb(4.518127%, 12.765503%, 30.104065%)" offset="0.523438"/><stop stop-opacity="1" stop-color="rgb(4.551697%, 12.861633%, 30.326843%)" offset="0.527344"/><stop stop-opacity="1" stop-color="rgb(4.585266%, 12.956238%, 30.551147%)" offset="0.53125"/><stop stop-opacity="1" stop-color="rgb(4.618835%, 13.050842%, 30.775452%)" offset="0.535156"/><stop stop-opacity="1" stop-color="rgb(4.652405%, 13.145447%, 30.99823%)" offset="0.539062"/><stop stop-opacity="1" stop-color="rgb(4.685974%, 13.240051%, 31.222534%)" offset="0.542969"/><stop stop-opacity="1" stop-color="rgb(4.719543%, 13.336182%, 31.446838%)" offset="0.546875"/><stop stop-opacity="1" stop-color="rgb(4.753113%, 13.430786%, 31.671143%)" offset="0.550781"/><stop stop-opacity="1" stop-color="rgb(4.786682%, 13.525391%, 31.893921%)" offset="0.554688"/><stop stop-opacity="1" stop-color="rgb(4.820251%, 13.619995%, 32.118225%)" offset="0.558594"/><stop stop-opacity="1" stop-color="rgb(4.853821%, 13.7146%, 32.342529%)" offset="0.5625"/><stop stop-opacity="1" stop-color="rgb(4.88739%, 13.81073%, 32.565308%)" offset="0.566406"/><stop stop-opacity="1" stop-color="rgb(4.920959%, 13.905334%, 32.789612%)" offset="0.570312"/><stop stop-opacity="1" stop-color="rgb(4.954529%, 13.999939%, 33.013916%)" offset="0.574219"/><stop stop-opacity="1" stop-color="rgb(4.988098%, 14.094543%, 33.236694%)" offset="0.578125"/><stop stop-opacity="1" stop-color="rgb(5.021667%, 14.189148%, 33.460999%)" offset="0.582031"/><stop stop-opacity="1" stop-color="rgb(5.055237%, 14.285278%, 33.685303%)" offset="0.585938"/><stop stop-opacity="1" stop-color="rgb(5.088806%, 14.379883%, 33.908081%)" offset="0.589844"/><stop stop-opacity="1" stop-color="rgb(5.122375%, 14.474487%, 34.132385%)" offset="0.59375"/><stop stop-opacity="1" stop-color="rgb(5.155945%, 14.569092%, 34.356689%)" offset="0.597656"/><stop stop-opacity="1" stop-color="rgb(5.189514%, 14.665222%, 34.579468%)" offset="0.601562"/><stop stop-opacity="1" stop-color="rgb(5.223083%, 14.759827%, 34.803772%)" offset="0.605469"/><stop stop-opacity="1" stop-color="rgb(5.256653%, 14.854431%, 35.028076%)" offset="0.609375"/><stop stop-opacity="1" stop-color="rgb(5.290222%, 14.949036%, 35.25238%)" offset="0.613281"/><stop stop-opacity="1" stop-color="rgb(5.323792%, 15.04364%, 35.475159%)" offset="0.617188"/><stop stop-opacity="1" stop-color="rgb(5.357361%, 15.139771%, 35.699463%)" offset="0.621094"/><stop stop-opacity="1" stop-color="rgb(5.39093%, 15.234375%, 35.923767%)" offset="0.625"/><stop stop-opacity="1" stop-color="rgb(5.4245%, 15.328979%, 36.146545%)" offset="0.628906"/><stop stop-opacity="1" stop-color="rgb(5.458069%, 15.423584%, 36.37085%)" offset="0.632812"/><stop stop-opacity="1" stop-color="rgb(5.491638%, 15.518188%, 36.595154%)" offset="0.636719"/><stop stop-opacity="1" stop-color="rgb(5.525208%, 15.614319%, 36.817932%)" offset="0.640625"/><stop stop-opacity="1" stop-color="rgb(5.558777%, 15.708923%, 37.042236%)" offset="0.644531"/><stop stop-opacity="1" stop-color="rgb(5.592346%, 15.803528%, 37.266541%)" offset="0.648438"/><stop stop-opacity="1" stop-color="rgb(5.625916%, 15.898132%, 37.489319%)" offset="0.652344"/><stop stop-opacity="1" stop-color="rgb(5.659485%, 15.992737%, 37.713623%)" offset="0.65625"/><stop stop-opacity="1" stop-color="rgb(5.693054%, 16.088867%, 37.937927%)" offset="0.660156"/><stop stop-opacity="1" stop-color="rgb(5.726624%, 16.183472%, 38.160706%)" offset="0.664062"/><stop stop-opacity="1" stop-color="rgb(5.760193%, 16.278076%, 38.38501%)" offset="0.667969"/><stop stop-opacity="1" stop-color="rgb(5.793762%, 16.372681%, 38.609314%)" offset="0.671875"/><stop stop-opacity="1" stop-color="rgb(5.827332%, 16.467285%, 38.833618%)" offset="0.675781"/><stop stop-opacity="1" stop-color="rgb(5.860901%, 16.563416%, 39.056396%)" offset="0.679688"/><stop stop-opacity="1" stop-color="rgb(5.89447%, 16.65802%, 39.280701%)" offset="0.683594"/><stop stop-opacity="1" stop-color="rgb(5.92804%, 16.752625%, 39.505005%)" offset="0.6875"/><stop stop-opacity="1" stop-color="rgb(5.961609%, 16.847229%, 39.727783%)" offset="0.691406"/><stop stop-opacity="1" stop-color="rgb(5.995178%, 16.943359%, 39.952087%)" offset="0.695312"/><stop stop-opacity="1" stop-color="rgb(6.028748%, 17.037964%, 40.176392%)" offset="0.699219"/><stop stop-opacity="1" stop-color="rgb(6.062317%, 17.132568%, 40.39917%)" offset="0.703125"/><stop stop-opacity="1" stop-color="rgb(6.095886%, 17.227173%, 40.623474%)" offset="0.707031"/><stop stop-opacity="1" stop-color="rgb(6.129456%, 17.321777%, 40.847778%)" offset="0.710938"/><stop stop-opacity="1" stop-color="rgb(6.163025%, 17.417908%, 41.070557%)" offset="0.714844"/><stop stop-opacity="1" stop-color="rgb(6.196594%, 17.512512%, 41.294861%)" offset="0.71875"/><stop stop-opacity="1" stop-color="rgb(6.230164%, 17.607117%, 41.519165%)" offset="0.722656"/><stop stop-opacity="1" stop-color="rgb(6.263733%, 17.701721%, 41.741943%)" offset="0.726562"/><stop stop-opacity="1" stop-color="rgb(6.297302%, 17.796326%, 41.966248%)" offset="0.730469"/><stop stop-opacity="1" stop-color="rgb(6.332397%, 17.892456%, 42.190552%)" offset="0.734375"/><stop stop-opacity="1" stop-color="rgb(6.365967%, 17.987061%, 42.414856%)" offset="0.738281"/><stop stop-opacity="1" stop-color="rgb(6.399536%, 18.081665%, 42.637634%)" offset="0.742188"/><stop stop-opacity="1" stop-color="rgb(6.433105%, 18.17627%, 42.861938%)" offset="0.746094"/><stop stop-opacity="1" stop-color="rgb(6.466675%, 18.270874%, 43.086243%)" offset="0.75"/><stop stop-opacity="1" stop-color="rgb(6.500244%, 18.367004%, 43.309021%)" offset="0.753906"/><stop stop-opacity="1" stop-color="rgb(6.533813%, 18.461609%, 43.533325%)" offset="0.757812"/><stop stop-opacity="1" stop-color="rgb(6.567383%, 18.556213%, 43.757629%)" offset="0.761719"/><stop stop-opacity="1" stop-color="rgb(6.600952%, 18.650818%, 43.980408%)" offset="0.765625"/><stop stop-opacity="1" stop-color="rgb(6.634521%, 18.745422%, 44.204712%)" offset="0.769531"/><stop stop-opacity="1" stop-color="rgb(6.668091%, 18.841553%, 44.429016%)" offset="0.773438"/><stop stop-opacity="1" stop-color="rgb(6.70166%, 18.936157%, 44.651794%)" offset="0.777344"/><stop stop-opacity="1" stop-color="rgb(6.735229%, 19.030762%, 44.876099%)" offset="0.78125"/><stop stop-opacity="1" stop-color="rgb(6.768799%, 19.125366%, 45.100403%)" offset="0.785156"/><stop stop-opacity="1" stop-color="rgb(6.802368%, 19.221497%, 45.323181%)" offset="0.789062"/><stop stop-opacity="1" stop-color="rgb(6.835938%, 19.316101%, 45.547485%)" offset="0.792969"/><stop stop-opacity="1" stop-color="rgb(6.869507%, 19.410706%, 45.77179%)" offset="0.796875"/><stop stop-opacity="1" stop-color="rgb(6.903076%, 19.50531%, 45.996094%)" offset="0.800781"/><stop stop-opacity="1" stop-color="rgb(6.936646%, 19.599915%, 46.218872%)" offset="0.804688"/><stop stop-opacity="1" stop-color="rgb(6.970215%, 19.696045%, 46.443176%)" offset="0.808594"/><stop stop-opacity="1" stop-color="rgb(7.003784%, 19.790649%, 46.66748%)" offset="0.8125"/><stop stop-opacity="1" stop-color="rgb(7.037354%, 19.885254%, 46.890259%)" offset="0.816406"/><stop stop-opacity="1" stop-color="rgb(7.070923%, 19.979858%, 47.114563%)" offset="0.820312"/><stop stop-opacity="1" stop-color="rgb(7.104492%, 20.074463%, 47.338867%)" offset="0.824219"/><stop stop-opacity="1" stop-color="rgb(7.138062%, 20.170593%, 47.561646%)" offset="0.828125"/><stop stop-opacity="1" stop-color="rgb(7.171631%, 20.265198%, 47.78595%)" offset="0.832031"/><stop stop-opacity="1" stop-color="rgb(7.2052%, 20.359802%, 48.010254%)" offset="0.835938"/><stop stop-opacity="1" stop-color="rgb(7.23877%, 20.454407%, 48.233032%)" offset="0.839844"/><stop stop-opacity="1" stop-color="rgb(7.272339%, 20.549011%, 48.457336%)" offset="0.84375"/><stop stop-opacity="1" stop-color="rgb(7.305908%, 20.645142%, 48.681641%)" offset="0.847656"/><stop stop-opacity="1" stop-color="rgb(7.339478%, 20.739746%, 48.904419%)" offset="0.851562"/><stop stop-opacity="1" stop-color="rgb(7.373047%, 20.834351%, 49.128723%)" offset="0.855469"/><stop stop-opacity="1" stop-color="rgb(7.406616%, 20.928955%, 49.353027%)" offset="0.859375"/><stop stop-opacity="1" stop-color="rgb(7.440186%, 21.02356%, 49.577332%)" offset="0.863281"/><stop stop-opacity="1" stop-color="rgb(7.473755%, 21.11969%, 49.80011%)" offset="0.867188"/><stop stop-opacity="1" stop-color="rgb(7.507324%, 21.214294%, 50.024414%)" offset="0.871094"/><stop stop-opacity="1" stop-color="rgb(7.540894%, 21.308899%, 50.248718%)" offset="0.875"/><stop stop-opacity="1" stop-color="rgb(7.574463%, 21.403503%, 50.471497%)" offset="0.878906"/><stop stop-opacity="1" stop-color="rgb(7.608032%, 21.499634%, 50.695801%)" offset="0.882812"/><stop stop-opacity="1" stop-color="rgb(7.641602%, 21.594238%, 50.920105%)" offset="0.886719"/><stop stop-opacity="1" stop-color="rgb(7.675171%, 21.688843%, 51.142883%)" offset="0.890625"/><stop stop-opacity="1" stop-color="rgb(7.70874%, 21.783447%, 51.367188%)" offset="0.894531"/><stop stop-opacity="1" stop-color="rgb(7.74231%, 21.878052%, 51.591492%)" offset="0.898438"/><stop stop-opacity="1" stop-color="rgb(7.775879%, 21.974182%, 51.81427%)" offset="0.902344"/><stop stop-opacity="1" stop-color="rgb(7.809448%, 22.068787%, 52.038574%)" offset="0.90625"/><stop stop-opacity="1" stop-color="rgb(7.843018%, 22.163391%, 52.262878%)" offset="0.910156"/><stop stop-opacity="1" stop-color="rgb(7.876587%, 22.257996%, 52.485657%)" offset="0.914062"/><stop stop-opacity="1" stop-color="rgb(7.910156%, 22.3526%, 52.709961%)" offset="0.917969"/><stop stop-opacity="1" stop-color="rgb(7.943726%, 22.44873%, 52.934265%)" offset="0.921875"/><stop stop-opacity="1" stop-color="rgb(7.977295%, 22.543335%, 53.158569%)" offset="0.925781"/><stop stop-opacity="1" stop-color="rgb(8.010864%, 22.637939%, 53.381348%)" offset="0.929688"/><stop stop-opacity="1" stop-color="rgb(8.044434%, 22.732544%, 53.605652%)" offset="0.933594"/><stop stop-opacity="1" stop-color="rgb(8.078003%, 22.827148%, 53.829956%)" offset="0.9375"/><stop stop-opacity="1" stop-color="rgb(8.111572%, 22.923279%, 54.052734%)" offset="0.941406"/><stop stop-opacity="1" stop-color="rgb(8.145142%, 23.017883%, 54.277039%)" offset="0.945312"/><stop stop-opacity="1" stop-color="rgb(8.178711%, 23.112488%, 54.501343%)" offset="0.949219"/><stop stop-opacity="1" stop-color="rgb(8.21228%, 23.207092%, 54.724121%)" offset="0.953125"/><stop stop-opacity="1" stop-color="rgb(8.24585%, 23.301697%, 54.948425%)" offset="0.957031"/><stop stop-opacity="1" stop-color="rgb(8.279419%, 23.397827%, 55.172729%)" offset="0.960938"/><stop stop-opacity="1" stop-color="rgb(8.312988%, 23.492432%, 55.395508%)" offset="0.964844"/><stop stop-opacity="1" stop-color="rgb(8.346558%, 23.587036%, 55.619812%)" offset="0.96875"/><stop stop-opacity="1" stop-color="rgb(8.380127%, 23.681641%, 55.844116%)" offset="0.972656"/><stop stop-opacity="1" stop-color="rgb(8.415222%, 23.777771%, 56.06842%)" offset="0.976562"/><stop stop-opacity="1" stop-color="rgb(8.448792%, 23.872375%, 56.291199%)" offset="0.980469"/><stop stop-opacity="1" stop-color="rgb(8.482361%, 23.96698%, 56.515503%)" offset="0.984375"/><stop stop-opacity="1" stop-color="rgb(8.51593%, 24.061584%, 56.739807%)" offset="0.988281"/><stop stop-opacity="1" stop-color="rgb(8.5495%, 24.156189%, 56.962585%)" offset="0.992188"/><stop stop-opacity="1" stop-color="rgb(8.583069%, 24.252319%, 57.18689%)" offset="0.996094"/><stop stop-opacity="1" stop-color="rgb(8.599854%, 24.299622%, 57.299805%)" offset="1"/></radialGradient><clipPath id="13a4a19fde"><path d="M 52.5 149.9375 L 138.75 149.9375 L 138.75 224.9375 L 52.5 224.9375 Z M 52.5 149.9375 " clip-rule="nonzero"/></clipPath></defs><rect x="-37.5" fill="url(#bbc7d205ac)" width="450" y="-37.499999" height="449.999989"/><g clip-path="url(#13a4a19fde)"><path fill="#ffffff" d="M 86.226562 201.007812 L 88.574219 201.007812 C 89.570312 201.007812 90.382812 201.824219 90.382812 202.816406 C 90.382812 203.8125 89.570312 204.625 88.574219 204.625 L 86.226562 204.625 C 85.230469 204.625 84.417969 203.8125 84.417969 202.816406 C 84.417969 201.824219 85.230469 201.007812 86.226562 201.007812 Z M 81.433594 164.355469 C 82.246094 164.175781 82.835938 163.449219 82.835938 162.59375 C 82.835938 161.6875 82.15625 160.921875 81.296875 160.785156 L 73.707031 160.785156 C 72.710938 160.785156 71.898438 159.972656 71.898438 158.976562 C 71.898438 157.980469 72.710938 157.167969 73.707031 157.167969 L 84.960938 157.167969 C 85.953125 157.167969 86.765625 156.355469 86.765625 155.359375 C 86.765625 154.457031 86.089844 153.6875 85.230469 153.554688 L 75.921875 153.554688 C 74.925781 153.554688 74.113281 152.738281 74.113281 151.746094 C 74.113281 150.75 74.925781 149.9375 75.921875 149.9375 L 135.171875 149.9375 C 136.980469 149.9375 138.425781 151.382812 138.425781 153.191406 L 138.425781 161.914062 C 138.425781 163.722656 136.980469 165.167969 135.171875 165.167969 L 118.8125 165.167969 C 117.003906 165.167969 115.558594 166.613281 115.558594 168.421875 L 115.558594 221.800781 C 115.558594 223.609375 114.113281 225.054688 112.304688 225.054688 L 97.253906 225.054688 C 97.207031 224.917969 97.207031 224.738281 97.207031 224.601562 C 97.207031 223.609375 98.019531 222.792969 99.015625 222.792969 L 101.726562 222.792969 C 102.722656 222.792969 103.535156 221.980469 103.535156 220.988281 C 103.535156 219.992188 102.722656 219.179688 101.726562 219.179688 L 96.121094 219.179688 C 95.128906 219.179688 94.316406 218.363281 94.316406 217.371094 C 94.316406 216.375 95.128906 215.5625 96.121094 215.5625 L 91.46875 215.5625 L 99.242188 215.5625 C 100.234375 215.5625 101.050781 214.75 101.050781 213.753906 C 101.050781 212.761719 100.234375 211.945312 99.242188 211.945312 L 95.671875 211.945312 C 94.675781 211.945312 93.863281 211.132812 93.863281 210.140625 C 93.863281 209.144531 94.675781 208.332031 95.671875 208.332031 L 103.265625 208.332031 C 104.257812 208.332031 105.070312 207.519531 105.070312 206.523438 C 105.070312 205.527344 104.257812 204.714844 103.265625 204.714844 L 93.410156 204.714844 C 92.417969 204.714844 91.601562 203.902344 91.601562 202.90625 C 91.601562 201.914062 92.417969 201.101562 93.410156 201.101562 L 100.234375 201.101562 C 101.230469 201.101562 102.042969 200.285156 102.042969 199.292969 C 102.042969 198.296875 101.230469 197.484375 100.234375 197.484375 L 91.105469 197.484375 C 90.113281 197.484375 89.296875 196.671875 89.296875 195.675781 C 89.296875 194.683594 90.113281 193.867188 91.105469 193.867188 L 105.433594 193.867188 C 106.429688 193.867188 107.242188 193.054688 107.242188 192.0625 C 107.242188 191.066406 106.429688 190.253906 105.433594 190.253906 L 96.847656 190.253906 C 95.851562 190.253906 95.039062 189.4375 95.039062 188.445312 C 95.039062 187.449219 95.851562 186.636719 96.847656 186.636719 L 101.5 186.636719 C 102.496094 186.636719 103.308594 185.824219 103.308594 184.828125 C 103.308594 183.835938 102.496094 183.019531 101.5 183.019531 L 94.585938 183.019531 C 93.59375 183.019531 92.777344 182.207031 92.777344 181.214844 C 92.777344 180.21875 93.59375 179.40625 94.585938 179.40625 L 105.839844 179.40625 C 106.835938 179.40625 107.648438 178.59375 107.648438 177.597656 C 107.648438 176.601562 106.835938 175.789062 105.839844 175.789062 L 86.902344 175.789062 C 85.910156 175.789062 85.09375 174.976562 85.09375 173.980469 C 85.09375 172.988281 85.910156 172.175781 86.902344 172.175781 L 100.011719 172.175781 C 101.003906 172.175781 101.816406 171.359375 101.816406 170.367188 C 101.816406 169.371094 101.003906 168.558594 100.011719 168.558594 C 92.101562 168.558594 84.234375 168.601562 76.328125 168.601562 C 75.332031 168.601562 74.519531 167.789062 74.519531 166.796875 C 74.519531 165.800781 75.332031 164.988281 76.328125 164.988281 L 81.433594 164.988281 Z M 83.785156 186.230469 L 88.980469 186.230469 C 89.976562 186.230469 90.789062 187.042969 90.789062 188.039062 C 90.789062 189.03125 89.976562 189.847656 88.980469 189.847656 L 67.828125 189.847656 C 66.835938 189.847656 66.023438 189.03125 66.023438 188.039062 C 66.023438 187.042969 66.835938 186.230469 67.828125 186.230469 Z M 54.359375 157.125 L 56.710938 157.125 C 57.707031 157.125 58.519531 157.9375 58.519531 158.929688 C 58.519531 159.925781 57.707031 160.738281 56.710938 160.738281 L 54.359375 160.738281 C 53.367188 160.738281 52.554688 159.925781 52.554688 158.929688 C 52.554688 157.9375 53.367188 157.125 54.359375 157.125 Z M 61.636719 157.125 L 68.554688 157.125 C 69.546875 157.125 70.359375 157.9375 70.359375 158.929688 C 70.359375 159.925781 69.546875 160.738281 68.554688 160.738281 L 61.636719 160.738281 C 60.644531 160.738281 59.828125 159.925781 59.828125 158.929688 C 59.785156 157.9375 60.644531 157.125 61.636719 157.125 Z M 88.125 215.425781 L 90.203125 215.425781 C 91.195312 215.425781 92.011719 216.242188 92.011719 217.234375 C 92.011719 218.230469 91.195312 219.042969 90.203125 219.042969 L 88.125 219.042969 C 87.128906 219.042969 86.316406 218.230469 86.316406 217.234375 C 86.316406 216.242188 87.128906 215.425781 88.125 215.425781 Z M 80.757812 193.507812 L 85.230469 193.507812 C 86.226562 193.507812 87.039062 194.320312 87.039062 195.316406 C 87.039062 196.308594 86.226562 197.121094 85.230469 197.121094 L 80.757812 197.121094 C 79.761719 197.121094 78.949219 196.308594 78.949219 195.316406 C 78.949219 194.320312 79.761719 193.507812 80.757812 193.507812 Z M 67.378906 164.355469 L 69.003906 164.355469 C 70 164.355469 70.8125 165.167969 70.8125 166.164062 C 70.8125 167.15625 70 167.96875 69.003906 167.96875 L 67.378906 167.96875 C 66.382812 167.96875 65.570312 167.15625 65.570312 166.164062 C 65.570312 165.167969 66.382812 164.355469 67.378906 164.355469 Z M 80.304688 208.105469 L 88.078125 208.105469 C 89.074219 208.105469 89.886719 208.917969 89.886719 209.914062 C 89.886719 210.90625 89.074219 211.722656 88.078125 211.722656 L 80.304688 211.722656 C 79.308594 211.722656 78.496094 210.90625 78.496094 209.914062 C 78.496094 208.964844 79.308594 208.105469 80.304688 208.105469 Z M 73.253906 171.632812 L 80.304688 171.632812 C 81.296875 171.632812 82.113281 172.445312 82.113281 173.441406 C 82.113281 174.433594 81.296875 175.246094 80.304688 175.246094 L 73.253906 175.246094 C 72.257812 175.246094 71.445312 174.433594 71.445312 173.441406 C 71.445312 172.445312 72.257812 171.632812 73.253906 171.632812 Z M 73.253906 171.632812 " fill-opacity="1" fill-rule="evenodd"/></g><g fill="#ffffff" fill-opacity="1"><g transform="translate(133.23086, 202.138707)"><g><path d="M 1.875 0 L 1.875 -21.4375 L 17.65625 -21.4375 L 17.65625 -17.703125 L 6.8125 -17.703125 L 6.8125 -12.453125 L 15.25 -12.453125 L 15.25 -8.71875 L 6.8125 -8.71875 L 6.8125 -3.734375 L 17.65625 -3.734375 L 17.65625 0 Z M 1.875 0 "/></g></g></g><g fill="#ffffff" fill-opacity="1"><g transform="translate(159.243135, 202.138707)"><g><path d="M 12.28125 0.21875 C 8.488281 0.21875 5.59375 -0.988281 3.59375 -3.40625 C 1.957031 -5.382812 1.140625 -7.828125 1.140625 -10.734375 L 1.140625 -10.875 C 1.140625 -13.8125 1.957031 -16.269531 3.59375 -18.25 C 5.570312 -20.644531 8.46875 -21.84375 12.28125 -21.84375 C 15.132812 -21.84375 17.488281 -21.195312 19.34375 -19.90625 C 21.195312 -18.625 22.3125 -16.910156 22.6875 -14.765625 L 17.546875 -14.765625 C 17.429688 -15.867188 16.898438 -16.707031 15.953125 -17.28125 C 15.015625 -17.851562 13.789062 -18.140625 12.28125 -18.140625 C 10.375 -18.140625 8.863281 -17.453125 7.75 -16.078125 C 6.632812 -14.710938 6.078125 -12.929688 6.078125 -10.734375 C 6.078125 -8.554688 6.640625 -6.800781 7.765625 -5.46875 C 8.890625 -4.144531 10.394531 -3.484375 12.28125 -3.484375 C 13.789062 -3.484375 15.015625 -3.769531 15.953125 -4.34375 C 16.898438 -4.914062 17.429688 -5.753906 17.546875 -6.859375 L 22.6875 -6.859375 C 22.3125 -4.734375 21.191406 -3.019531 19.328125 -1.71875 C 17.460938 -0.425781 15.113281 0.21875 12.28125 0.21875 Z M 12.28125 0.21875 "/></g></g></g><g fill="#ffffff" fill-opacity="1"><g transform="translate(190.090993, 202.138707)"><g><path d="M 1.875 0 L 1.875 -21.4375 L 6.8125 -21.4375 L 6.8125 -12.203125 L 15.640625 -12.203125 L 15.640625 -21.4375 L 20.59375 -21.4375 L 20.59375 0 L 15.640625 0 L 15.640625 -8.390625 L 6.8125 -8.390625 L 6.8125 0 Z M 1.875 0 "/></g></g></g><g fill="#ffffff" fill-opacity="1"><g transform="translate(219.583436, 202.138707)"><g><path d="M 1.875 0 L 1.875 -21.4375 L 6.8125 -21.4375 L 6.8125 -3.734375 L 17.84375 -3.734375 L 17.84375 0 Z M 1.875 0 "/></g></g></g><g fill="#ffffff" fill-opacity="1"><g transform="translate(245.41255, 202.138707)"><g><path d="M 0.40625 0 L 7.625 -21.4375 L 15.828125 -21.4375 L 23.015625 0 L 17.8125 0 L 16.3125 -4.5 L 7.140625 -4.5 L 5.609375 0 Z M 8.421875 -8.359375 L 14.984375 -8.359375 L 11.71875 -18.09375 Z M 8.421875 -8.359375 "/></g></g></g><g fill="#ffffff" fill-opacity="1"><g transform="translate(275.857453, 202.138707)"><g><path d="M 1.875 0 L 1.875 -21.4375 L 10.734375 -21.4375 C 13.566406 -21.4375 15.734375 -20.867188 17.234375 -19.734375 C 18.742188 -18.597656 19.5 -17.078125 19.5 -15.171875 C 19.5 -14.359375 19.332031 -13.519531 19 -12.65625 C 18.664062 -11.789062 18.160156 -11.257812 17.484375 -11.0625 C 18.484375 -10.71875 19.242188 -10.066406 19.765625 -9.109375 C 20.296875 -8.160156 20.5625 -7.203125 20.5625 -6.234375 C 20.5625 -4.347656 19.804688 -2.835938 18.296875 -1.703125 C 16.796875 -0.566406 14.628906 0 11.796875 0 Z M 6.8125 -12.390625 L 10.734375 -12.390625 C 13.148438 -12.390625 14.359375 -13.265625 14.359375 -15.015625 C 14.359375 -15.898438 14.035156 -16.566406 13.390625 -17.015625 C 12.742188 -17.472656 11.859375 -17.703125 10.734375 -17.703125 L 6.8125 -17.703125 Z M 6.8125 -3.734375 L 11.828125 -3.734375 C 14.253906 -3.734375 15.46875 -4.566406 15.46875 -6.234375 C 15.46875 -7.179688 15.164062 -7.816406 14.5625 -8.140625 C 13.96875 -8.472656 13.054688 -8.640625 11.828125 -8.640625 L 6.8125 -8.640625 Z M 6.8125 -3.734375 "/></g></g></g><g fill="#ffffff" fill-opacity="1"><g transform="translate(134.715495, 214.447278)"><g><path d="M 2.734375 0.046875 C 1.890625 0.046875 1.242188 -0.21875 0.796875 -0.75 C 0.429688 -1.195312 0.25 -1.742188 0.25 -2.390625 L 0.25 -2.421875 C 0.25 -3.066406 0.429688 -3.609375 0.796875 -4.046875 C 1.234375 -4.585938 1.878906 -4.859375 2.734375 -4.859375 C 3.359375 -4.859375 3.878906 -4.710938 4.296875 -4.421875 C 4.710938 -4.140625 4.957031 -3.757812 5.03125 -3.28125 L 3.90625 -3.28125 C 3.875 -3.519531 3.753906 -3.703125 3.546875 -3.828125 C 3.335938 -3.960938 3.066406 -4.03125 2.734375 -4.03125 C 2.304688 -4.03125 1.96875 -3.878906 1.71875 -3.578125 C 1.46875 -3.273438 1.34375 -2.878906 1.34375 -2.390625 C 1.34375 -1.898438 1.46875 -1.503906 1.71875 -1.203125 C 1.96875 -0.910156 2.304688 -0.765625 2.734375 -0.765625 C 3.066406 -0.765625 3.335938 -0.828125 3.546875 -0.953125 C 3.753906 -1.085938 3.875 -1.273438 3.90625 -1.515625 L 5.03125 -1.515625 C 4.957031 -1.046875 4.710938 -0.664062 4.296875 -0.375 C 3.878906 -0.09375 3.359375 0.046875 2.734375 0.046875 Z M 2.734375 0.046875 "/></g></g></g><g fill="#ffffff" fill-opacity="1"><g transform="translate(144.463624, 214.447278)"><g><path d="M 0.421875 0 L 0.421875 -4.765625 L 2.578125 -4.765625 C 3.203125 -4.765625 3.679688 -4.601562 4.015625 -4.28125 C 4.347656 -3.957031 4.515625 -3.5625 4.515625 -3.09375 C 4.515625 -2.8125 4.4375 -2.53125 4.28125 -2.25 C 4.125 -1.976562 3.898438 -1.773438 3.609375 -1.640625 L 4.375 0 L 3.15625 0 L 2.484375 -1.421875 L 1.515625 -1.421875 L 1.515625 0 Z M 1.515625 -2.25 L 2.59375 -2.25 C 2.832031 -2.25 3.03125 -2.320312 3.1875 -2.46875 C 3.34375 -2.625 3.421875 -2.828125 3.421875 -3.078125 C 3.421875 -3.335938 3.34375 -3.546875 3.1875 -3.703125 C 3.03125 -3.859375 2.832031 -3.9375 2.59375 -3.9375 L 1.515625 -3.9375 Z M 1.515625 -2.25 "/></g></g></g><g fill="#ffffff" fill-opacity="1"><g transform="translate(153.617749, 214.447278)"><g><path d="M 0.421875 0 L 0.421875 -4.765625 L 3.921875 -4.765625 L 3.921875 -3.9375 L 1.515625 -3.9375 L 1.515625 -2.765625 L 3.390625 -2.765625 L 3.390625 -1.9375 L 1.515625 -1.9375 L 1.515625 -0.828125 L 3.921875 -0.828125 L 3.921875 0 Z M 0.421875 0 "/></g></g></g><g fill="#ffffff" fill-opacity="1"><g transform="translate(162.291797, 214.447278)"><g><path d="M 0.09375 0 L 1.6875 -4.765625 L 3.515625 -4.765625 L 5.109375 0 L 3.953125 0 L 3.625 -1 L 1.59375 -1 L 1.25 0 Z M 1.875 -1.859375 L 3.328125 -1.859375 L 2.609375 -4.015625 Z M 1.875 -1.859375 "/></g></g></g><g fill="#ffffff" fill-opacity="1"><g transform="translate(171.950427, 214.447278)"><g><path d="M 1.578125 0 L 1.578125 -3.9375 L 0.125 -3.9375 L 0.125 -4.765625 L 4.109375 -4.765625 L 4.109375 -3.9375 L 2.671875 -3.9375 L 2.671875 0 Z M 1.578125 0 "/></g></g></g><g fill="#ffffff" fill-opacity="1"><g transform="translate(180.648886, 214.447278)"><g><path d="M 0.421875 0 L 0.421875 -4.765625 L 1.515625 -4.765625 L 1.515625 0 Z M 0.421875 0 "/></g></g></g><g fill="#ffffff" fill-opacity="1"><g transform="translate(187.052706, 214.447278)"><g><path d="M 1.734375 0 L 0.09375 -4.765625 L 1.25 -4.765625 L 2.65625 -0.734375 L 4.0625 -4.765625 L 5.21875 -4.765625 L 3.5625 0 Z M 1.734375 0 "/></g></g></g><g fill="#ffffff" fill-opacity="1"><g transform="translate(196.817113, 214.447278)"><g><path d="M 0.421875 0 L 0.421875 -4.765625 L 3.921875 -4.765625 L 3.921875 -3.9375 L 1.515625 -3.9375 L 1.515625 -2.765625 L 3.390625 -2.765625 L 3.390625 -1.9375 L 1.515625 -1.9375 L 1.515625 -0.828125 L 3.921875 -0.828125 L 3.921875 0 Z M 0.421875 0 "/></g></g></g><g fill="#ffffff" fill-opacity="1"><g transform="translate(205.491164, 214.447278)"><g/></g></g><g fill="#ffffff" fill-opacity="1"><g transform="translate(211.488131, 214.447278)"><g><path d="M 0.328125 0 L 0.40625 -1.109375 C 0.414062 -1.328125 0.429688 -1.597656 0.453125 -1.921875 C 0.453125 -1.921875 0.507812 -2.867188 0.625 -4.765625 L 2.46875 -4.765625 L 3.453125 -1.640625 L 4.453125 -4.765625 L 6.296875 -4.765625 C 6.335938 -4.097656 6.375 -3.546875 6.40625 -3.109375 C 6.445312 -2.316406 6.484375 -1.648438 6.515625 -1.109375 C 6.523438 -1.003906 6.53125 -0.867188 6.53125 -0.703125 C 6.539062 -0.546875 6.550781 -0.394531 6.5625 -0.25 C 6.570312 -0.113281 6.578125 -0.03125 6.578125 0 L 5.46875 0 L 5.25 -3.8125 L 4.03125 0 L 2.890625 0 L 1.671875 -3.8125 L 1.453125 0 Z M 0.328125 0 "/></g></g></g><g fill="#ffffff" fill-opacity="1"><g transform="translate(222.863674, 214.447278)"><g><path d="M 0.421875 0 L 0.421875 -4.765625 L 1.515625 -4.765625 L 1.515625 0 Z M 0.421875 0 "/></g></g></g><g fill="#ffffff" fill-opacity="1"><g transform="translate(229.267494, 214.447278)"><g><path d="M 0.421875 0 L 0.421875 -4.765625 L 1.734375 -4.765625 L 3.84375 -1.296875 L 3.84375 -4.765625 L 4.953125 -4.765625 L 4.953125 0 L 3.453125 0 L 1.515625 -3.171875 L 1.515625 0 Z M 0.421875 0 "/></g></g></g><g fill="#ffffff" fill-opacity="1"><g transform="translate(239.088859, 214.447278)"><g><path d="M 0.421875 0 L 0.421875 -4.765625 L 2.28125 -4.765625 C 3.125 -4.765625 3.765625 -4.503906 4.203125 -3.984375 C 4.554688 -3.546875 4.734375 -3.015625 4.734375 -2.390625 C 4.734375 -1.785156 4.554688 -1.265625 4.203125 -0.828125 C 3.753906 -0.273438 3.113281 0 2.28125 0 Z M 1.515625 -0.828125 L 2.4375 -0.828125 C 2.820312 -0.828125 3.117188 -0.960938 3.328125 -1.234375 C 3.535156 -1.515625 3.640625 -1.898438 3.640625 -2.390625 C 3.640625 -3.421875 3.238281 -3.9375 2.4375 -3.9375 L 1.515625 -3.9375 Z M 1.515625 -0.828125 "/></g></g></g><g fill="#ffffff" fill-opacity="1"><g transform="translate(248.535922, 214.447278)"><g><path d="M 0.453125 2.21875 L 0.765625 0.484375 L 1.8125 0.484375 L 1.40625 2.21875 Z M 0.453125 2.21875 "/></g></g></g><g fill="#ffffff" fill-opacity="1"><g transform="translate(134.715495, 223.262334)"><g><path d="M 2.734375 0.046875 C 1.890625 0.046875 1.242188 -0.21875 0.796875 -0.75 C 0.429688 -1.195312 0.25 -1.742188 0.25 -2.390625 L 0.25 -2.421875 C 0.25 -3.066406 0.429688 -3.609375 0.796875 -4.046875 C 1.234375 -4.585938 1.878906 -4.859375 2.734375 -4.859375 C 3.359375 -4.859375 3.878906 -4.710938 4.296875 -4.421875 C 4.710938 -4.140625 4.957031 -3.757812 5.03125 -3.28125 L 3.90625 -3.28125 C 3.875 -3.519531 3.753906 -3.703125 3.546875 -3.828125 C 3.335938 -3.960938 3.066406 -4.03125 2.734375 -4.03125 C 2.304688 -4.03125 1.96875 -3.878906 1.71875 -3.578125 C 1.46875 -3.273438 1.34375 -2.878906 1.34375 -2.390625 C 1.34375 -1.898438 1.46875 -1.503906 1.71875 -1.203125 C 1.96875 -0.910156 2.304688 -0.765625 2.734375 -0.765625 C 3.066406 -0.765625 3.335938 -0.828125 3.546875 -0.953125 C 3.753906 -1.085938 3.875 -1.273438 3.90625 -1.515625 L 5.03125 -1.515625 C 4.957031 -1.046875 4.710938 -0.664062 4.296875 -0.375 C 3.878906 -0.09375 3.359375 0.046875 2.734375 0.046875 Z M 2.734375 0.046875 "/></g></g></g><g fill="#ffffff" fill-opacity="1"><g transform="translate(144.463624, 223.262334)"><g><path d="M 0.421875 0 L 0.421875 -4.765625 L 2.578125 -4.765625 C 3.203125 -4.765625 3.679688 -4.601562 4.015625 -4.28125 C 4.347656 -3.957031 4.515625 -3.5625 4.515625 -3.09375 C 4.515625 -2.8125 4.4375 -2.53125 4.28125 -2.25 C 4.125 -1.976562 3.898438 -1.773438 3.609375 -1.640625 L 4.375 0 L 3.15625 0 L 2.484375 -1.421875 L 1.515625 -1.421875 L 1.515625 0 Z M 1.515625 -2.25 L 2.59375 -2.25 C 2.832031 -2.25 3.03125 -2.320312 3.1875 -2.46875 C 3.34375 -2.625 3.421875 -2.828125 3.421875 -3.078125 C 3.421875 -3.335938 3.34375 -3.546875 3.1875 -3.703125 C 3.03125 -3.859375 2.832031 -3.9375 2.59375 -3.9375 L 1.515625 -3.9375 Z M 1.515625 -2.25 "/></g></g></g><g fill="#ffffff" fill-opacity="1"><g transform="translate(153.617749, 223.262334)"><g><path d="M 0.421875 0 L 0.421875 -4.765625 L 3.921875 -4.765625 L 3.921875 -3.9375 L 1.515625 -3.9375 L 1.515625 -2.765625 L 3.390625 -2.765625 L 3.390625 -1.9375 L 1.515625 -1.9375 L 1.515625 -0.828125 L 3.921875 -0.828125 L 3.921875 0 Z M 0.421875 0 "/></g></g></g><g fill="#ffffff" fill-opacity="1"><g transform="translate(162.291797, 223.262334)"><g><path d="M 0.09375 0 L 1.6875 -4.765625 L 3.515625 -4.765625 L 5.109375 0 L 3.953125 0 L 3.625 -1 L 1.59375 -1 L 1.25 0 Z M 1.875 -1.859375 L 3.328125 -1.859375 L 2.609375 -4.015625 Z M 1.875 -1.859375 "/></g></g></g><g fill="#ffffff" fill-opacity="1"><g transform="translate(171.950427, 223.262334)"><g><path d="M 1.578125 0 L 1.578125 -3.9375 L 0.125 -3.9375 L 0.125 -4.765625 L 4.109375 -4.765625 L 4.109375 -3.9375 L 2.671875 -3.9375 L 2.671875 0 Z M 1.578125 0 "/></g></g></g><g fill="#ffffff" fill-opacity="1"><g transform="translate(180.648886, 223.262334)"><g><path d="M 0.421875 0 L 0.421875 -4.765625 L 1.515625 -4.765625 L 1.515625 0 Z M 0.421875 0 "/></g></g></g><g fill="#ffffff" fill-opacity="1"><g transform="translate(187.052706, 223.262334)"><g><path d="M 1.734375 0 L 0.09375 -4.765625 L 1.25 -4.765625 L 2.65625 -0.734375 L 4.0625 -4.765625 L 5.21875 -4.765625 L 3.5625 0 Z M 1.734375 0 "/></g></g></g><g fill="#ffffff" fill-opacity="1"><g transform="translate(196.817113, 223.262334)"><g><path d="M 0.421875 0 L 0.421875 -4.765625 L 3.921875 -4.765625 L 3.921875 -3.9375 L 1.515625 -3.9375 L 1.515625 -2.765625 L 3.390625 -2.765625 L 3.390625 -1.9375 L 1.515625 -1.9375 L 1.515625 -0.828125 L 3.921875 -0.828125 L 3.921875 0 Z M 0.421875 0 "/></g></g></g><g fill="#ffffff" fill-opacity="1"><g transform="translate(205.491164, 223.262334)"><g/></g></g><g fill="#ffffff" fill-opacity="1"><g transform="translate(211.488131, 223.262334)"><g><path d="M 1.0625 0 L 0.09375 -4.765625 L 1.25 -4.765625 L 1.953125 -0.90625 L 2.890625 -4.765625 L 3.953125 -4.765625 L 4.90625 -0.90625 L 5.59375 -4.765625 L 6.75 -4.765625 L 5.78125 0 L 4.140625 0 L 3.421875 -2.796875 L 2.703125 0 Z M 1.0625 0 "/></g></g></g><g fill="#ffffff" fill-opacity="1"><g transform="translate(222.79044, 223.262334)"><g><path d="M 2.703125 0.046875 C 1.867188 0.046875 1.234375 -0.222656 0.796875 -0.765625 C 0.429688 -1.210938 0.25 -1.738281 0.25 -2.34375 C 0.25 -2.976562 0.429688 -3.53125 0.796875 -4 C 1.234375 -4.570312 1.867188 -4.859375 2.703125 -4.859375 C 3.523438 -4.859375 4.164062 -4.570312 4.625 -4 C 4.976562 -3.539062 5.15625 -2.988281 5.15625 -2.34375 C 5.15625 -1.726562 4.976562 -1.203125 4.625 -0.765625 C 4.164062 -0.222656 3.523438 0.046875 2.703125 0.046875 Z M 1.703125 -1.203125 C 1.953125 -0.910156 2.285156 -0.765625 2.703125 -0.765625 C 3.117188 -0.765625 3.445312 -0.910156 3.6875 -1.203125 C 3.925781 -1.492188 4.046875 -1.875 4.046875 -2.34375 C 4.046875 -2.832031 3.925781 -3.234375 3.6875 -3.546875 C 3.445312 -3.867188 3.117188 -4.03125 2.703125 -4.03125 C 2.285156 -4.03125 1.953125 -3.867188 1.703125 -3.546875 C 1.460938 -3.234375 1.34375 -2.832031 1.34375 -2.34375 C 1.34375 -1.875 1.460938 -1.492188 1.703125 -1.203125 Z M 1.703125 -1.203125 "/></g></g></g><g fill="#ffffff" fill-opacity="1"><g transform="translate(232.652499, 223.262334)"><g><path d="M 0.421875 0 L 0.421875 -4.765625 L 2.578125 -4.765625 C 3.203125 -4.765625 3.679688 -4.601562 4.015625 -4.28125 C 4.347656 -3.957031 4.515625 -3.5625 4.515625 -3.09375 C 4.515625 -2.8125 4.4375 -2.53125 4.28125 -2.25 C 4.125 -1.976562 3.898438 -1.773438 3.609375 -1.640625 L 4.375 0 L 3.15625 0 L 2.484375 -1.421875 L 1.515625 -1.421875 L 1.515625 0 Z M 1.515625 -2.25 L 2.59375 -2.25 C 2.832031 -2.25 3.03125 -2.320312 3.1875 -2.46875 C 3.34375 -2.625 3.421875 -2.828125 3.421875 -3.078125 C 3.421875 -3.335938 3.34375 -3.546875 3.1875 -3.703125 C 3.03125 -3.859375 2.832031 -3.9375 2.59375 -3.9375 L 1.515625 -3.9375 Z M 1.515625 -2.25 "/></g></g></g><g fill="#ffffff" fill-opacity="1"><g transform="translate(241.806626, 223.262334)"><g><path d="M 0.421875 0 L 0.421875 -4.765625 L 1.515625 -4.765625 L 1.515625 -2.765625 L 3.453125 -4.765625 L 4.859375 -4.765625 L 3.390625 -3.234375 L 5.109375 0 L 3.859375 0 L 2.578125 -2.40625 L 1.515625 -1.3125 L 1.515625 0 Z M 0.421875 0 "/></g></g></g><g fill="#ffffff" fill-opacity="1"><g transform="translate(251.457116, 223.262334)"><g><path d="M 2.59375 0.046875 C 2.207031 0.046875 1.847656 0 1.515625 -0.09375 C 1.179688 -0.1875 0.894531 -0.347656 0.65625 -0.578125 C 0.425781 -0.804688 0.3125 -1.085938 0.3125 -1.421875 L 1.65625 -1.421875 C 1.65625 -0.984375 1.96875 -0.765625 2.59375 -0.765625 C 2.96875 -0.765625 3.222656 -0.804688 3.359375 -0.890625 C 3.503906 -0.984375 3.578125 -1.140625 3.578125 -1.359375 C 3.578125 -1.410156 3.566406 -1.457031 3.546875 -1.5 C 3.523438 -1.550781 3.484375 -1.59375 3.421875 -1.625 C 3.367188 -1.664062 3.316406 -1.695312 3.265625 -1.71875 C 3.222656 -1.75 3.148438 -1.773438 3.046875 -1.796875 C 2.941406 -1.828125 2.863281 -1.847656 2.8125 -1.859375 C 2.757812 -1.867188 2.671875 -1.882812 2.546875 -1.90625 C 2.472656 -1.925781 2.414062 -1.941406 2.375 -1.953125 C 2.113281 -1.992188 1.90625 -2.03125 1.75 -2.0625 C 1.601562 -2.101562 1.421875 -2.164062 1.203125 -2.25 C 0.992188 -2.332031 0.832031 -2.421875 0.71875 -2.515625 C 0.601562 -2.609375 0.503906 -2.734375 0.421875 -2.890625 C 0.335938 -3.054688 0.296875 -3.242188 0.296875 -3.453125 C 0.296875 -3.878906 0.441406 -4.207031 0.734375 -4.4375 C 1.085938 -4.71875 1.640625 -4.859375 2.390625 -4.859375 C 2.773438 -4.859375 3.128906 -4.804688 3.453125 -4.703125 C 3.773438 -4.609375 4.046875 -4.445312 4.265625 -4.21875 C 4.484375 -3.988281 4.59375 -3.707031 4.59375 -3.375 L 3.25 -3.375 C 3.25 -3.613281 3.175781 -3.78125 3.03125 -3.875 C 2.894531 -3.976562 2.6875 -4.03125 2.40625 -4.03125 C 2.070312 -4.03125 1.820312 -3.984375 1.65625 -3.890625 C 1.5 -3.796875 1.421875 -3.671875 1.421875 -3.515625 C 1.421875 -3.421875 1.453125 -3.335938 1.515625 -3.265625 C 1.578125 -3.191406 1.671875 -3.128906 1.796875 -3.078125 C 1.929688 -3.035156 2.054688 -3 2.171875 -2.96875 C 2.285156 -2.945312 2.4375 -2.914062 2.625 -2.875 C 2.644531 -2.863281 2.660156 -2.859375 2.671875 -2.859375 C 2.679688 -2.859375 2.695312 -2.851562 2.71875 -2.84375 C 2.75 -2.84375 2.769531 -2.84375 2.78125 -2.84375 C 3.039062 -2.789062 3.269531 -2.734375 3.46875 -2.671875 C 3.675781 -2.609375 3.878906 -2.519531 4.078125 -2.40625 C 4.273438 -2.300781 4.429688 -2.164062 4.546875 -2 C 4.660156 -1.84375 4.71875 -1.660156 4.71875 -1.453125 C 4.71875 -0.972656 4.5625 -0.613281 4.25 -0.375 C 3.894531 -0.09375 3.34375 0.046875 2.59375 0.046875 Z M 2.59375 0.046875 "/></g></g></g><g fill="#ffffff" fill-opacity="1"><g transform="translate(260.920454, 223.262334)"><g><path d="M 0.453125 0 L 0.453125 -1.046875 L 1.53125 -1.046875 L 1.53125 0 Z M 0.453125 0 "/></g></g></g></svg>