<svg width="326" height="100" viewBox="0 0 326 100" fill="none" xmlns="http://www.w3.org/2000/svg">
<g clip-path="url(#clip0_220_556)">
<mask id="mask0_220_556" style="mask-type:luminance" maskUnits="userSpaceOnUse" x="-1" y="-1" width="116" height="101">
<path d="M-0.0214844 -0.0830078H114.979V99.917H-0.0214844V-0.0830078Z" fill="white"/>
</mask>
<g mask="url(#mask0_220_556)">
<path fill-rule="evenodd" clip-rule="evenodd" d="M44.9466 68.0107H48.082C49.405 68.0107 50.4935 69.0993 50.4935 70.4222C50.4935 71.7503 49.405 72.8337 48.082 72.8337H44.9466C43.6185 72.8337 42.5352 71.7503 42.5352 70.4222C42.5352 69.0993 43.6185 68.0107 44.9466 68.0107ZM38.5612 19.141C39.6445 18.9014 40.4258 17.9326 40.4258 16.792C40.4258 15.5837 39.5247 14.5628 38.3789 14.3805H28.2539C26.9258 14.3805 25.8424 13.2972 25.8424 11.9691C25.8424 10.641 26.9258 9.55762 28.2539 9.55762H43.2591C44.5872 9.55762 45.6706 8.47428 45.6706 7.14616C45.6706 5.94303 44.7643 4.91699 43.6185 4.73991H31.207C29.8789 4.73991 28.7956 3.65137 28.7956 2.32845C28.7956 1.00033 29.8789 -0.0830078 31.207 -0.0830078H110.212C112.624 -0.0830078 114.551 1.84408 114.551 4.25553V15.8857C114.551 18.2972 112.624 20.2243 110.212 20.2243H88.3945C85.9831 20.2243 84.056 22.1514 84.056 24.5628V95.7347C84.056 98.1462 82.1289 100.073 79.7175 100.073H59.6497C59.5924 99.891 59.5924 99.6514 59.5924 99.4691C59.5924 98.1462 60.6758 97.0576 61.9987 97.0576H65.6185C66.9414 97.0576 68.0299 95.9743 68.0299 94.6514C68.0299 93.3232 66.9414 92.2399 65.6185 92.2399H58.1445C56.8164 92.2399 55.7331 91.1514 55.7331 89.8285C55.7331 88.5003 56.8164 87.417 58.1445 87.417H51.9362H62.3008C63.6289 87.417 64.7122 86.3337 64.7122 85.0055C64.7122 83.6826 63.6289 82.5941 62.3008 82.5941H57.5404C56.2174 82.5941 55.1289 81.5107 55.1289 80.1878C55.1289 78.8597 56.2174 77.7764 57.5404 77.7764H67.6654C68.9935 77.7764 70.0768 76.693 70.0768 75.3649C70.0768 74.0368 68.9935 72.9535 67.6654 72.9535H54.5299C53.2018 72.9535 52.1185 71.8701 52.1185 70.542C52.1185 69.2191 53.2018 68.1357 54.5299 68.1357H63.6289C64.9518 68.1357 66.0404 67.0472 66.0404 65.7243C66.0404 64.3962 64.9518 63.3128 63.6289 63.3128H51.457C50.1289 63.3128 49.0456 62.2295 49.0456 60.9014C49.0456 59.5785 50.1289 58.4899 51.457 58.4899H70.556C71.8841 58.4899 72.9675 57.4066 72.9675 56.0837C72.9675 54.7555 71.8841 53.6722 70.556 53.6722H59.1081C57.7852 53.6722 56.6966 52.5837 56.6966 51.2607C56.6966 49.9326 57.7852 48.8493 59.1081 48.8493H65.3164C66.6393 48.8493 67.7279 47.766 67.7279 46.4378C67.7279 45.1149 66.6393 44.0264 65.3164 44.0264H56.0977C54.7695 44.0264 53.6862 42.943 53.6862 41.6201C53.6862 40.292 54.7695 39.2087 56.0977 39.2087H71.1029C72.4258 39.2087 73.5091 38.1253 73.5091 36.7972C73.5091 35.4691 72.4258 34.3857 71.1029 34.3857H45.8529C44.5247 34.3857 43.4414 33.3024 43.4414 31.9743C43.4414 30.6514 44.5247 29.568 45.8529 29.568H63.3268C64.655 29.568 65.7383 28.4795 65.7383 27.1566C65.7383 25.8285 64.655 24.7451 63.3268 24.7451C52.78 24.7451 42.2956 24.8024 31.7487 24.8024C30.4258 24.8024 29.3372 23.7191 29.3372 22.3962C29.3372 21.068 30.4258 19.9847 31.7487 19.9847H38.5612V19.141ZM41.6914 48.3076H48.6237C49.9466 48.3076 51.0352 49.391 51.0352 50.7191C51.0352 52.042 49.9466 53.1305 48.6237 53.1305H20.4206C19.0924 53.1305 18.0091 52.042 18.0091 50.7191C18.0091 49.391 19.0924 48.3076 20.4206 48.3076H41.6914ZM2.46224 9.50033H5.59766C6.92057 9.50033 8.00391 10.5837 8.00391 11.9066C8.00391 13.2347 6.92057 14.318 5.59766 14.318H2.46224C1.13411 14.318 0.0507812 13.2347 0.0507812 11.9066C0.0507812 10.5837 1.13411 9.50033 2.46224 9.50033ZM12.1654 9.50033H21.3841C22.7122 9.50033 23.7956 10.5837 23.7956 11.9066C23.7956 13.2347 22.7122 14.318 21.3841 14.318H12.1654C10.8372 14.318 9.75391 13.2347 9.75391 11.9066C9.69141 10.5837 10.8372 9.50033 12.1654 9.50033ZM47.4779 87.2347H50.2487C51.5768 87.2347 52.6602 88.3232 52.6602 89.6462C52.6602 90.9743 51.5768 92.0576 50.2487 92.0576H47.4779C46.1497 92.0576 45.0664 90.9743 45.0664 89.6462C45.0664 88.3232 46.1497 87.2347 47.4779 87.2347ZM37.6549 58.0107H43.6185C44.9466 58.0107 46.0299 59.0941 46.0299 60.4222C46.0299 61.7451 44.9466 62.8285 43.6185 62.8285H37.6549C36.3268 62.8285 35.2435 61.7451 35.2435 60.4222C35.2435 59.0941 36.3268 58.0107 37.6549 58.0107ZM19.8164 19.141H21.9883C23.3112 19.141 24.3997 20.2243 24.3997 21.5524C24.3997 22.8753 23.3112 23.9587 21.9883 23.9587H19.8164C18.4935 23.9587 17.4049 22.8753 17.4049 21.5524C17.4049 20.2243 18.4935 19.141 19.8164 19.141ZM37.0508 77.4743H47.4154C48.7435 77.4743 49.8268 78.5576 49.8268 79.8857C49.8268 81.2087 48.7435 82.2972 47.4154 82.2972H37.0508C35.7279 82.2972 34.6445 81.2087 34.6445 79.8857C34.6445 78.6201 35.7279 77.4743 37.0508 77.4743ZM27.6497 28.8441H37.0508C38.3789 28.8441 39.4622 29.9274 39.4622 31.2555C39.4622 32.5785 38.3789 33.6618 37.0508 33.6618H27.6497C26.3268 33.6618 25.2435 32.5785 25.2435 31.2555C25.2435 29.9274 26.3268 28.8441 27.6497 28.8441Z" fill="black"/>
</g>
<path d="M110.123 69.5179V40.9346H131.165V45.9137H116.706V52.9137H127.956V57.8929H116.706V64.5387H131.165V69.5179H110.123Z" fill="black"/>
<path d="M158.68 69.8102C153.623 69.8102 149.764 68.2008 147.097 64.9769C144.915 62.3415 143.826 59.0811 143.826 55.2061V55.0186C143.826 51.1019 144.915 47.8258 147.097 45.1852C149.732 41.9925 153.597 40.3936 158.68 40.3936C162.482 40.3936 165.623 41.2581 168.097 42.9769C170.566 44.6852 172.055 46.9717 172.555 49.8311H165.701C165.545 48.3623 164.837 47.2425 163.576 46.4769C162.326 45.7165 160.691 45.3311 158.68 45.3311C156.139 45.3311 154.123 46.2477 152.639 48.0811C151.149 49.904 150.41 52.279 150.41 55.2061C150.41 58.1123 151.16 60.4508 152.66 62.2269C154.16 63.9925 156.165 64.8727 158.68 64.8727C160.691 64.8727 162.326 64.4925 163.576 63.7269C164.837 62.9665 165.545 61.8467 165.701 60.3727H172.555C172.055 63.2061 170.561 65.4925 168.076 67.2269C165.587 68.9508 162.456 69.8102 158.68 69.8102Z" fill="black"/>
<path d="M185.936 69.5179V40.9346H192.519V53.2471H204.29V40.9346H210.894V69.5179H204.29V58.3304H192.519V69.5179H185.936Z" fill="black"/>
<path d="M225.26 69.5179V40.9346H231.843V64.5387H246.551V69.5179H225.26Z" fill="black"/>
<path d="M257.74 69.5179L267.365 40.9346H278.303L287.886 69.5179H280.949L278.949 63.5179H266.719L264.678 69.5179H257.74ZM268.428 58.3721H277.178L272.824 45.3929L268.428 58.3721Z" fill="black"/>
<path d="M300.291 69.5179V40.9346H312.104C315.88 40.9346 318.77 41.695 320.77 43.2054C322.781 44.721 323.791 46.7471 323.791 49.2887C323.791 50.3721 323.567 51.4919 323.124 52.6429C322.676 53.7992 322.005 54.5075 321.104 54.7679C322.437 55.2262 323.447 56.096 324.145 57.3721C324.854 58.6377 325.208 59.9137 325.208 61.2054C325.208 63.721 324.197 65.7367 322.187 67.2471C320.187 68.7627 317.296 69.5179 313.52 69.5179H300.291ZM306.874 52.9971H312.104C315.322 52.9971 316.937 51.8304 316.937 49.4971C316.937 48.32 316.505 47.4294 315.645 46.8304C314.781 46.221 313.604 45.9137 312.104 45.9137H306.874V52.9971ZM306.874 64.5387H313.562C316.796 64.5387 318.416 63.4294 318.416 61.2054C318.416 59.945 318.01 59.096 317.208 58.6637C316.416 58.221 315.197 57.9971 313.562 57.9971H306.874V64.5387Z" fill="black"/>
<path d="M113.248 85.9919C112.123 85.9919 111.258 85.6377 110.665 84.9294C110.175 84.3356 109.936 83.6064 109.936 82.7419V82.7002C109.936 81.8408 110.175 81.1169 110.665 80.5335C111.248 79.8148 112.107 79.4502 113.248 79.4502C114.081 79.4502 114.774 79.6481 115.331 80.0335C115.883 80.4085 116.212 80.9189 116.311 81.5544H114.811C114.769 81.2367 114.607 80.9919 114.331 80.8252C114.05 80.6481 113.691 80.5544 113.248 80.5544C112.675 80.5544 112.227 80.7575 111.894 81.1585C111.561 81.5648 111.394 82.0908 111.394 82.7419C111.394 83.3981 111.561 83.9242 111.894 84.3252C112.227 84.7158 112.675 84.9085 113.248 84.9085C113.691 84.9085 114.05 84.8252 114.331 84.6585C114.607 84.4814 114.769 84.2314 114.811 83.9085H116.311C116.212 84.5335 115.883 85.0439 115.331 85.4294C114.774 85.8044 114.081 85.9919 113.248 85.9919Z" fill="black"/>
<path d="M123.162 85.9294V79.5752H126.037C126.87 79.5752 127.506 79.7939 127.954 80.221C128.396 80.6533 128.62 81.1794 128.62 81.8044C128.62 82.1794 128.516 82.5544 128.308 82.9294C128.1 83.2939 127.798 83.5648 127.412 83.7419L128.433 85.9294H126.808L125.912 84.0335H124.62V85.9294H123.162ZM124.62 82.9294H126.058C126.376 82.9294 126.641 82.8356 126.85 82.6377C127.058 82.4294 127.162 82.1585 127.162 81.8252C127.162 81.4814 127.058 81.2002 126.85 80.9919C126.641 80.7835 126.376 80.6794 126.058 80.6794H124.62V82.9294Z" fill="black"/>
<path d="M135.367 85.9294V79.5752H140.034V80.6794H136.826V82.2419H139.326V83.346H136.826V84.8252H140.034V85.9294H135.367Z" fill="black"/>
<path d="M146.496 85.9294L148.621 79.5752H151.059L153.184 85.9294H151.642L151.204 84.596H148.496L148.038 85.9294H146.496ZM148.871 83.4502H150.809L149.85 80.5752L148.871 83.4502Z" fill="black"/>
<path d="M161.354 85.9294V80.6794H159.416V79.5752H164.729V80.6794H162.812V85.9294H161.354Z" fill="black"/>
<path d="M171.41 85.9294V79.5752H172.868V85.9294H171.41Z" fill="black"/>
<path d="M181.697 85.9294L179.51 79.5752H181.051L182.926 84.9502L184.801 79.5752H186.343L184.135 85.9294H181.697Z" fill="black"/>
<path d="M192.967 85.9294V79.5752H197.633V80.6794H194.425V82.2419H196.925V83.346H194.425V84.8252H197.633V85.9294H192.967Z" fill="black"/>
<path d="M212.402 85.9294L212.507 84.4502C212.517 84.1585 212.538 83.7992 212.569 83.3669C212.569 83.3669 212.642 82.1064 212.798 79.5752H215.257L216.569 83.7419L217.902 79.5752H220.361C220.413 80.4658 220.465 81.2002 220.507 81.7835C220.559 82.8408 220.611 83.7314 220.652 84.4502C220.663 84.5908 220.673 84.7731 220.673 84.9919C220.684 85.2002 220.699 85.4033 220.715 85.596C220.725 85.7783 220.736 85.8877 220.736 85.9294H219.257L218.965 80.846L217.34 85.9294H215.819L214.194 80.846L213.902 85.9294H212.402Z" fill="black"/>
<path d="M227.695 85.9294V79.5752H229.154V85.9294H227.695Z" fill="black"/>
<path d="M236.234 85.9294V79.5752H237.984L240.797 84.2002V79.5752H242.276V85.9294H240.276L237.693 81.7002V85.9294H236.234Z" fill="black"/>
<path d="M249.33 85.9294V79.5752H251.809C252.934 79.5752 253.788 79.9242 254.372 80.6169C254.84 81.2002 255.08 81.9085 255.08 82.7419C255.08 83.5492 254.84 84.2419 254.372 84.8252C253.773 85.5648 252.919 85.9294 251.809 85.9294H249.33ZM250.788 84.8252H252.018C252.528 84.8252 252.924 84.6481 253.205 84.2835C253.481 83.9085 253.622 83.3981 253.622 82.7419C253.622 81.3669 253.085 80.6794 252.018 80.6794H250.788V84.8252Z" fill="black"/>
<path d="M261.967 88.8877L262.383 86.5752H263.779L263.238 88.8877H261.967Z" fill="black"/>
<path d="M113.248 97.7458C112.123 97.7458 111.258 97.3916 110.665 96.6833C110.175 96.0895 109.936 95.3604 109.936 94.4958V94.4541C109.936 93.5947 110.175 92.8708 110.665 92.2874C111.248 91.5687 112.107 91.2041 113.248 91.2041C114.081 91.2041 114.774 91.402 115.331 91.7874C115.883 92.1624 116.212 92.6729 116.311 93.3083H114.811C114.769 92.9906 114.607 92.7458 114.331 92.5791C114.05 92.402 113.691 92.3083 113.248 92.3083C112.675 92.3083 112.227 92.5114 111.894 92.9124C111.561 93.3187 111.394 93.8447 111.394 94.4958C111.394 95.152 111.561 95.6781 111.894 96.0791C112.227 96.4697 112.675 96.6624 113.248 96.6624C113.691 96.6624 114.05 96.5791 114.331 96.4124C114.607 96.2354 114.769 95.9854 114.811 95.6624H116.311C116.212 96.2874 115.883 96.7979 115.331 97.1833C114.774 97.5583 114.081 97.7458 113.248 97.7458Z" fill="black"/>
<path d="M123.162 97.6833V91.3291H126.037C126.87 91.3291 127.506 91.5479 127.954 91.9749C128.396 92.4072 128.62 92.9333 128.62 93.5583C128.62 93.9333 128.516 94.3083 128.308 94.6833C128.1 95.0479 127.798 95.3187 127.412 95.4958L128.433 97.6833H126.808L125.912 95.7874H124.62V97.6833H123.162ZM124.62 94.6833H126.058C126.376 94.6833 126.641 94.5895 126.85 94.3916C127.058 94.1833 127.162 93.9124 127.162 93.5791C127.162 93.2354 127.058 92.9541 126.85 92.7458C126.641 92.5374 126.376 92.4333 126.058 92.4333H124.62V94.6833Z" fill="black"/>
<path d="M135.367 97.6833V91.3291H140.034V92.4333H136.826V93.9958H139.326V95.0999H136.826V96.5791H140.034V97.6833H135.367Z" fill="black"/>
<path d="M146.496 97.6833L148.621 91.3291H151.059L153.184 97.6833H151.642L151.204 96.3499H148.496L148.038 97.6833H146.496ZM148.871 95.2041H150.809L149.85 92.3291L148.871 95.2041Z" fill="black"/>
<path d="M161.354 97.6833V92.4333H159.416V91.3291H164.729V92.4333H162.812V97.6833H161.354Z" fill="black"/>
<path d="M171.41 97.6833V91.3291H172.868V97.6833H171.41Z" fill="black"/>
<path d="M181.697 97.6833L179.51 91.3291H181.051L182.926 96.7041L184.801 91.3291H186.343L184.135 97.6833H181.697Z" fill="black"/>
<path d="M192.967 97.6833V91.3291H197.633V92.4333H194.425V93.9958H196.925V95.0999H194.425V96.5791H197.633V97.6833H192.967Z" fill="black"/>
<path d="M213.382 97.6833L212.09 91.3291H213.632L214.569 96.4749L215.819 91.3291H217.236L218.507 96.4749L219.423 91.3291H220.965L219.673 97.6833H217.486L216.527 93.9541L215.569 97.6833H213.382Z" fill="black"/>
<path d="M230.64 97.7458C229.525 97.7458 228.682 97.3864 228.098 96.6624C227.609 96.0687 227.369 95.3656 227.369 94.5583C227.369 93.7145 227.609 92.9749 228.098 92.3499C228.682 91.5895 229.525 91.2041 230.64 91.2041C231.734 91.2041 232.588 91.5895 233.202 92.3499C233.671 92.9645 233.911 93.6989 233.911 94.5583C233.911 95.3812 233.671 96.0791 233.202 96.6624C232.588 97.3864 231.734 97.7458 230.64 97.7458ZM229.307 96.0791C229.64 96.4697 230.083 96.6624 230.64 96.6624C231.192 96.6624 231.63 96.4697 231.952 96.0791C232.27 95.6937 232.432 95.1833 232.432 94.5583C232.432 93.9072 232.27 93.3708 231.952 92.9541C231.63 92.527 231.192 92.3083 230.64 92.3083C230.083 92.3083 229.64 92.527 229.307 92.9541C228.984 93.3708 228.827 93.9072 228.827 94.5583C228.827 95.1833 228.984 95.6937 229.307 96.0791Z" fill="black"/>
<path d="M240.748 97.6833V91.3291H243.623C244.456 91.3291 245.092 91.5479 245.54 91.9749C245.982 92.4072 246.206 92.9333 246.206 93.5583C246.206 93.9333 246.102 94.3083 245.894 94.6833C245.686 95.0479 245.383 95.3187 244.998 95.4958L246.019 97.6833H244.394L243.498 95.7874H242.206V97.6833H240.748ZM242.206 94.6833H243.644C243.962 94.6833 244.227 94.5895 244.436 94.3916C244.644 94.1833 244.748 93.9124 244.748 93.5791C244.748 93.2354 244.644 92.9541 244.436 92.7458C244.227 92.5374 243.962 92.4333 243.644 92.4333H242.206V94.6833Z" fill="black"/>
<path d="M252.953 97.6833V91.3291H254.411V93.9958L256.995 91.3291H258.87L256.911 93.3708L259.203 97.6833H257.536L255.828 94.4749L254.411 95.9333V97.6833H252.953Z" fill="black"/>
<path d="M268.717 97.7458C268.201 97.7458 267.722 97.6833 267.279 97.5583C266.831 97.4333 266.451 97.2197 266.133 96.9124C265.826 96.6104 265.675 96.2354 265.675 95.7874H267.467C267.467 96.3708 267.883 96.6624 268.717 96.6624C269.217 96.6624 269.555 96.6104 269.738 96.4958C269.93 96.3708 270.029 96.1624 270.029 95.8708C270.029 95.8031 270.014 95.7406 269.988 95.6833C269.956 95.6156 269.904 95.5583 269.821 95.5166C269.748 95.4645 269.68 95.4229 269.613 95.3916C269.555 95.3499 269.456 95.3187 269.321 95.2874C269.18 95.2458 269.076 95.2197 269.008 95.2041C268.936 95.1937 268.821 95.1729 268.654 95.1416C268.555 95.1156 268.477 95.0947 268.425 95.0791C268.076 95.027 267.8 94.9749 267.592 94.9333C267.394 94.8812 267.154 94.7979 266.863 94.6833C266.581 94.5739 266.368 94.4541 266.217 94.3291C266.061 94.2041 265.93 94.0374 265.821 93.8291C265.706 93.6104 265.654 93.3604 265.654 93.0791C265.654 92.5114 265.847 92.0739 266.238 91.7666C266.706 91.3916 267.446 91.2041 268.446 91.2041C268.956 91.2041 269.43 91.277 269.863 91.4124C270.29 91.5374 270.654 91.7562 270.946 92.0583C271.238 92.3656 271.383 92.7406 271.383 93.1833H269.592C269.592 92.8656 269.493 92.6416 269.3 92.5166C269.118 92.3812 268.842 92.3083 268.467 92.3083C268.019 92.3083 267.686 92.3708 267.467 92.4958C267.258 92.6208 267.154 92.7874 267.154 92.9958C267.154 93.1208 267.196 93.2354 267.279 93.3291C267.363 93.4281 267.488 93.5114 267.654 93.5791C267.831 93.6364 267.998 93.6833 268.154 93.7249C268.305 93.7562 268.508 93.7979 268.758 93.8499C268.785 93.8656 268.805 93.8708 268.821 93.8708C268.831 93.8708 268.852 93.8812 268.883 93.8916C268.925 93.8916 268.951 93.8916 268.967 93.8916C269.311 93.9645 269.618 94.0374 269.883 94.1208C270.16 94.2041 270.43 94.3239 270.696 94.4749C270.956 94.6156 271.165 94.7979 271.321 95.0166C271.472 95.2249 271.55 95.4697 271.55 95.7458C271.55 96.3864 271.342 96.8656 270.925 97.1833C270.451 97.5583 269.717 97.7458 268.717 97.7458Z" fill="black"/>
<path d="M278.48 97.6829V96.2871H279.918V97.6829H278.48Z" fill="black"/>
</g>
<defs>
<clipPath id="clip0_220_556">
<rect width="326" height="100" fill="white"/>
</clipPath>
</defs>
</svg>
