<svg width="16" height="16" viewBox="0 0 16 16" fill="none" xmlns="http://www.w3.org/2000/svg">
<path fill-rule="evenodd" clip-rule="evenodd" d="M7.3327 1.33301C8.62136 1.33301 9.66605 2.37766 9.66605 3.66632C9.66605 4.91204 8.68986 5.92976 7.46073 5.9962L7.3327 5.99966C6.04405 5.99966 4.99936 4.95501 4.99936 3.66632C4.99936 2.42063 5.97555 1.40288 7.20467 1.33645L7.3327 1.33301ZM2.66602 13.333H8.53448C8.29598 12.9209 8.13346 12.4693 8.05467 11.9997H3.99936V10.933L4.00283 10.8036C4.06711 9.60466 5.01892 8.66632 6.16602 8.66632H8.49936L8.62148 8.66988C8.74052 8.67685 8.85711 8.69391 8.97048 8.72026C9.30757 8.32968 9.71676 8.00771 10.1757 7.77198C9.67786 7.4921 9.10667 7.33301 8.49936 7.33301H6.16602L6.02177 7.33601C4.15567 7.41382 2.66602 8.99448 2.66602 10.933V13.333ZM6.3327 3.66632C6.3327 3.11404 6.78042 2.66632 7.3327 2.66632C7.88498 2.66632 8.3327 3.11404 8.3327 3.66632C8.3327 4.2186 7.88498 4.66632 7.3327 4.66632C6.78042 4.66632 6.3327 4.2186 6.3327 3.66632ZM10.0401 14.0297L11.9994 12.833L13.9586 14.0297L13.426 11.7965L15.1695 10.3029L12.881 10.1195L11.9994 7.99966L11.1177 10.1195L8.82917 10.3029L10.5728 11.7965L10.0401 14.0297Z" fill="#05112B"/>
</svg>
