<svg width="19" height="19" viewBox="0 0 19 19" fill="none" xmlns="http://www.w3.org/2000/svg">
<path d="M3.16602 4.75V9.5C3.16602 9.5 3.16602 11.875 8.70768 11.875C14.2493 11.875 14.2493 9.5 14.2493 9.5V4.75" stroke="#05112B" stroke-width="1.5" stroke-linecap="round" stroke-linejoin="round"/>
<path d="M8.70768 16.625C3.16602 16.625 3.16602 14.25 3.16602 14.25V9.5M14.2493 17.4167H16.6243M8.70768 2.375C14.2493 2.375 14.2493 4.75 14.2493 4.75C14.2493 4.75 14.2493 7.125 8.70768 7.125C3.16602 7.125 3.16602 4.75 3.16602 4.75C3.16602 4.75 3.16602 2.375 8.70768 2.375ZM15.4368 15.3813H17.2838V12.6667H13.5899V15.3813H15.4368Z" stroke="#05112B" stroke-width="1.5" stroke-linecap="round" stroke-linejoin="round"/>
</svg>
