<svg width="34" height="17" viewBox="0 0 34 17" fill="none" xmlns="http://www.w3.org/2000/svg">
<g clip-path="url(#clip0_207_625)">
<path d="M24.4788 9.20821C26.2677 8.15611 28.0518 7.09545 29.8467 6.05437C31.5504 5.06578 33.5549 5.97739 33.9412 7.90097C34.1647 9.01373 33.6796 10.2158 32.6985 10.8013C29.482 12.7207 26.2609 14.6324 23.0237 16.5149C22.0218 17.0976 20.9897 16.9904 20.0766 16.2764C19.1491 15.5515 18.8568 14.5516 19.0743 13.3879C19.3227 12.502 19.8911 11.9097 20.6663 11.4666C21.948 10.7341 23.209 9.96301 24.4788 9.20821Z" fill="#05112B"/>
<path d="M25.7917 8.44277C24.0073 7.38251 22.2185 6.33055 20.4404 5.25955C18.7525 4.24281 18.5214 2.00942 19.9549 0.70491C20.7842 -0.0494817 22.0434 -0.220434 23.0292 0.356886C26.2607 2.2496 29.4881 4.15033 32.6987 6.07977C33.6924 6.67694 34.1177 7.64594 33.9706 8.81269C33.8212 9.99752 33.122 10.7567 32.0289 11.1458C31.1554 11.3685 30.3704 11.1605 29.608 10.6945C28.3476 9.92408 27.0649 9.19131 25.7917 8.44277Z" fill="#05112B"/>
<path d="M9.52954 7.69257C8.38456 8.3587 7.23892 9.0236 6.09501 9.69177C5.42603 10.0826 4.76422 10.4868 4.0918 10.8712C2.73671 11.6457 1.12676 11.1917 0.358436 9.8275C-0.374822 8.52571 0.046592 6.83795 1.35161 6.05785C4.54243 4.15072 7.74148 2.25747 10.9521 0.385292C11.9368 -0.188765 12.9584 -0.116548 13.8689 0.569844C14.83 1.29432 15.1446 2.31377 14.9288 3.5088C14.7949 3.79808 14.7149 4.13712 14.5144 4.36492C14.1885 4.73552 13.8179 5.09035 13.4054 5.35092C12.1288 6.157 10.8235 6.9156 9.52954 7.69257Z" fill="#05112B"/>
<path d="M8.21594 8.44014C9.35189 9.12232 10.487 9.80599 11.624 10.4863C12.289 10.8842 12.9617 11.2689 13.623 11.673C14.9556 12.4876 15.3768 14.1422 14.6071 15.5056C13.8727 16.8069 12.2347 17.2771 10.9224 16.5097C7.71405 14.6336 4.5134 12.7435 1.32483 10.8322C0.346936 10.2461 -0.102767 9.30401 0.0224754 8.15332C0.154624 6.9387 0.85946 6.15004 1.97814 5.74381C2.28958 5.7181 2.6163 5.61937 2.90929 5.68329C3.38569 5.78719 3.87112 5.93829 4.29771 6.17384C5.61773 6.9028 6.91186 7.68099 8.21594 8.44014Z" fill="#05112B"/>
</g>
<defs>
<clipPath id="clip0_207_625">
<rect width="34" height="17" fill="white"/>
</clipPath>
</defs>
</svg>
