<svg width="15" height="15" viewBox="0 0 15 15" fill="none" xmlns="http://www.w3.org/2000/svg">
<path d="M3.125 8.125V13.75H1.875V8.125H3.125ZM14.375 8.125V9.375H13.125V13.75H11.875V9.375H10.625V8.125H14.375ZM7.5 6.875C8.3757 6.87976 9.23275 7.12844 9.975 7.59313L10.8794 6.68688C9.8872 5.99732 8.70826 5.62687 7.5 5.625C6.30793 5.62722 5.14498 5.99357 4.16687 6.675L5.0725 7.58313C5.79963 7.12495 6.64057 6.87964 7.5 6.875Z" fill="#05112B"/>
<path d="M7.49906 4.375C9.03798 4.37846 10.5352 4.87577 11.7703 5.79375L12.6622 4.9C11.1859 3.75163 9.36942 3.12716 7.49906 3.125C5.64489 3.12721 3.84445 3.74789 2.38281 4.88875L3.27406 5.7825C4.49459 4.87158 5.97608 4.37804 7.49906 4.375Z" fill="#05112B"/>
<path d="M7.49961 1.87499C9.70154 1.87528 11.8374 2.62714 13.554 4.00624L14.4459 3.11311C12.497 1.50647 10.0504 0.626941 7.52464 0.625003C4.99889 0.623065 2.55095 1.49884 0.599609 3.10249L1.49148 3.99561C3.19364 2.62405 5.31363 1.87578 7.49961 1.87499ZM7.49961 8.12499C6.94335 8.12499 6.39958 8.28994 5.93707 8.59898C5.47455 8.90802 5.11407 9.34727 4.9012 9.86119C4.68833 10.3751 4.63263 10.9406 4.74115 11.4862C4.84967 12.0318 5.11754 12.5329 5.51087 12.9262C5.90421 13.3196 6.40535 13.5874 6.95092 13.6959C7.49649 13.8045 8.06199 13.7488 8.57591 13.5359C9.08982 13.323 9.52908 12.9625 9.83812 12.5C10.1472 12.0375 10.3121 11.4937 10.3121 10.9375C10.3121 10.1916 10.0158 9.4762 9.48835 8.94875C8.9609 8.42131 8.24553 8.12499 7.49961 8.12499ZM7.49961 12.5C7.19058 12.5 6.88848 12.4084 6.63153 12.2367C6.37458 12.065 6.17431 11.8209 6.05605 11.5354C5.93779 11.2499 5.90684 10.9358 5.96713 10.6327C6.02742 10.3296 6.17624 10.0512 6.39476 9.83263C6.61327 9.61411 6.89169 9.4653 7.19478 9.40501C7.49788 9.34472 7.81204 9.37566 8.09755 9.49393C8.38306 9.61219 8.62709 9.81246 8.79878 10.0694C8.97047 10.3264 9.06211 10.6285 9.06211 10.9375C9.06211 11.3519 8.89749 11.7493 8.60446 12.0423C8.31144 12.3354 7.91401 12.5 7.49961 12.5Z" fill="#05112B"/>
</svg>
