<svg width="18" height="18" viewBox="0 0 18 18" fill="none" xmlns="http://www.w3.org/2000/svg">
<g clip-path="url(#clip0_212_642)">
<path d="M16 3H2C1.73478 3 1.48043 3.10536 1.29289 3.29289C1.10536 3.48043 1 3.73478 1 4V14C1 14.2652 1.10536 14.5196 1.29289 14.7071C1.48043 14.8946 1.73478 15 2 15H9.5L9.785 14.65L10.25 14.08L10.205 14H2V4H16V8.28C16.3799 8.52583 16.7176 8.83143 17 9.185V4C17 3.73478 16.8946 3.48043 16.7071 3.29289C16.5196 3.10536 16.2652 3 16 3Z" fill="#05112B"/>
<path d="M3.5 6H12V6.8H3.5V6Z" fill="#05112B"/>
<path d="M3.5 8H9V8.8H3.5V8Z" fill="#05112B"/>
<path d="M3.5 11.5H8.5V12.3H3.5V11.5Z" fill="#05112B"/>
<path d="M13.7306 8.61533C13.0908 8.61025 12.4643 8.79831 11.9331 9.15492C11.4018 9.51154 10.9905 10.0201 10.7528 10.6142C10.5152 11.2083 10.4623 11.8603 10.6011 12.4849C10.7398 13.1095 11.0638 13.6777 11.5306 14.1153L10.5606 15.3003L11.0106 17.1053L12.8406 14.8753C13.4199 15.0466 14.0364 15.0466 14.6156 14.8753L16.4456 17.1053L16.8956 15.3003L15.9256 14.1153C16.3925 13.6777 16.7164 13.1095 16.8552 12.4849C16.994 11.8603 16.9411 11.2083 16.7034 10.6142C16.4658 10.0201 16.0545 9.51154 15.5232 9.15492C14.992 8.79831 14.3655 8.61025 13.7256 8.61533H13.7306ZM13.7306 13.9553C13.3058 13.9494 12.8921 13.818 12.5417 13.5777C12.1913 13.3373 11.9197 12.9987 11.7612 12.6044C11.6027 12.2102 11.5643 11.7779 11.6508 11.3618C11.7373 10.9458 11.9449 10.5646 12.2474 10.2662C12.5499 9.96784 12.9339 9.76556 13.3511 9.68481C13.7683 9.60406 14.2001 9.64845 14.5921 9.8124C14.9841 9.97636 15.3189 10.2525 15.5544 10.6063C15.7899 10.96 15.9156 11.3754 15.9156 11.8003C15.9104 12.3754 15.6775 12.925 15.268 13.3289C14.8585 13.7328 14.3058 13.958 13.7306 13.9553Z" fill="#05112B"/>
</g>
<defs>
<clipPath id="clip0_212_642">
<rect width="18" height="18" fill="white"/>
</clipPath>
</defs>
</svg>
