<svg width="14" height="14" viewBox="0 0 14 14" fill="none" xmlns="http://www.w3.org/2000/svg">
<path d="M6 11L5 13.5M8 11L9 13.5M4 13.5H10M13 2H1C0.867392 2 0.740215 2.05268 0.646447 2.14645C0.552678 2.24021 0.5 2.36739 0.5 2.5V10.5C0.5 10.6326 0.552678 10.7598 0.646447 10.8536C0.740215 10.9473 0.867392 11 1 11H13C13.1326 11 13.2598 10.9473 13.3536 10.8536C13.4473 10.7598 13.5 10.6326 13.5 10.5V2.5C13.5 2.36739 13.4473 2.24021 13.3536 2.14645C13.2598 2.05268 13.1326 2 13 2Z" stroke="#05112B" stroke-linecap="round" stroke-linejoin="round"/>
<path d="M4.5 5.25L2.75 6.75L4.25 8M9.75 5.5L11.25 6.75L9.5 8.25M6.25 8.75L7.75 4.25" stroke="#05112B" stroke-linecap="round" stroke-linejoin="round"/>
</svg>
