<svg width="21" height="21" viewBox="0 0 21 21" fill="none" xmlns="http://www.w3.org/2000/svg">
<path d="M2.625 1.75C2.16087 1.75 1.71575 1.93437 1.38756 2.26256C1.05937 2.59075 0.875 3.03587 0.875 3.5V14C0.875 14.4641 1.05937 14.9092 1.38756 15.2374C1.71575 15.5656 2.16087 15.75 2.625 15.75H8.75V17.5H7V19.25H14V17.5H12.25V15.75H18.375C18.8391 15.75 19.2842 15.5656 19.6124 15.2374C19.9406 14.9092 20.125 14.4641 20.125 14V3.5C20.125 3.03587 19.9406 2.59075 19.6124 2.26256C19.2842 1.93437 18.8391 1.75 18.375 1.75M2.625 3.5H18.375V14H2.625M13.125 4.375L10.0625 7.4375L13.125 10.5L14.35 9.275L12.5125 7.4375L14.35 5.6M7.875 7L6.65 8.225L8.4875 10.0625L6.65 11.9L7.875 13.125L10.9375 10.0625" fill="#05112B"/>
</svg>
