<svg width="25" height="24" viewBox="0 0 25 24" fill="none" xmlns="http://www.w3.org/2000/svg">
<path d="M8.93892 6.58496C8.42892 6.58496 8.01892 6.73196 7.73092 7.04696C7.44492 7.35296 7.31292 7.77896 7.31292 8.30096C7.31225 8.69029 7.39959 9.04429 7.57492 9.36296V9.36496C7.74892 9.67396 8.04792 10.011 8.46192 10.375V10.376C8.78192 10.655 8.98992 10.885 9.09792 11.068V11.07C9.20326 11.24 9.25625 11.445 9.25692 11.685C9.25692 11.892 9.21392 12.01 9.15892 12.072C9.11192 12.126 9.03292 12.165 8.89392 12.165C8.75392 12.165 8.67392 12.125 8.62392 12.065C8.57092 12.002 8.53092 11.89 8.53092 11.703V11.121H7.29492V11.631C7.29492 12.164 7.42392 12.597 7.70192 12.91L7.70292 12.911C7.98592 13.221 8.39492 13.365 8.90292 13.365C9.41692 13.365 9.83192 13.218 10.1199 12.903C10.4119 12.59 10.5469 12.153 10.5469 11.613C10.5483 11.1963 10.4643 10.828 10.2949 10.508C10.1269 10.19 9.82592 9.84896 9.40592 9.48396C9.08592 9.20596 8.87492 8.97696 8.75992 8.79796C8.6564 8.62958 8.60202 8.43561 8.60292 8.23796C8.60292 8.05396 8.64092 7.94296 8.69292 7.88096C8.73892 7.82396 8.81492 7.78496 8.94792 7.78496C9.07592 7.78496 9.15192 7.82396 9.20092 7.88296L9.20392 7.88696C9.25192 7.94196 9.29292 8.05296 9.29292 8.25596V8.72996H10.5289V8.31896C10.5289 7.78696 10.4009 7.35596 10.1219 7.04896C9.84592 6.73196 9.44192 6.58496 8.93892 6.58496Z" fill="#05112B"/>
<path fill-rule="evenodd" clip-rule="evenodd" d="M16.0241 6.58496C15.5091 6.58496 15.0921 6.73196 14.7981 7.04696C14.5071 7.35896 14.3711 7.78996 14.3711 8.31896V11.631C14.3711 12.16 14.5071 12.591 14.7991 12.903C15.0921 13.218 15.5091 13.365 16.0241 13.365C16.5391 13.365 16.9561 13.218 17.2501 12.903C17.5411 12.591 17.6771 12.16 17.6771 11.631V8.31896C17.6771 7.78896 17.5411 7.35896 17.2501 7.04696C16.9561 6.73196 16.5401 6.58496 16.0241 6.58496ZM15.6611 8.25596C15.6611 8.06596 15.7011 7.95096 15.7551 7.88596C15.8051 7.82596 15.8851 7.78496 16.0251 7.78496C16.1641 7.78496 16.2441 7.82496 16.2931 7.88496C16.3471 7.95096 16.3871 8.06496 16.3871 8.25596V11.694C16.3871 11.884 16.3471 11.999 16.2931 12.064C16.2431 12.124 16.1631 12.165 16.0241 12.165C15.8841 12.165 15.8041 12.125 15.7551 12.065C15.7011 11.999 15.6611 11.885 15.6611 11.694V8.25596Z" fill="#05112B"/>
<path d="M13.9941 6.6748H10.9941V13.2748H13.9941V12.0748H12.2841V10.4398H13.6431V9.2398H12.2831V7.8748H13.9931L13.9941 6.6748Z" fill="#05112B"/>
<path fill-rule="evenodd" clip-rule="evenodd" d="M4.78711 4.17188C4.19037 4.17188 3.61808 4.40893 3.19612 4.83088C2.77416 5.25284 2.53711 5.82514 2.53711 6.42188V13.8279C2.53711 14.4246 2.77416 14.9969 3.19612 15.4189C3.61808 15.8408 4.19037 16.0779 4.78711 16.0779H11.7871V18.3279H9.53711C9.3382 18.3279 9.14743 18.4069 9.00678 18.5475C8.86613 18.6882 8.78711 18.879 8.78711 19.0779C8.78711 19.2768 8.86613 19.4676 9.00678 19.6082C9.14743 19.7489 9.3382 19.8279 9.53711 19.8279H15.5371C15.736 19.8279 15.9268 19.7489 16.0674 19.6082C16.2081 19.4676 16.2871 19.2768 16.2871 19.0779C16.2871 18.879 16.2081 18.6882 16.0674 18.5475C15.9268 18.4069 15.736 18.3279 15.5371 18.3279H13.2871V16.0779H20.2871C20.8838 16.0779 21.4561 15.8408 21.8781 15.4189C22.3001 14.9969 22.5371 14.4246 22.5371 13.8279V6.42188C22.5371 5.82514 22.3001 5.25284 21.8781 4.83088C21.4561 4.40893 20.8838 4.17188 20.2871 4.17188H4.78711ZM4.03711 6.42188C4.03711 6.22296 4.11613 6.0322 4.25678 5.89154C4.39743 5.75089 4.5882 5.67188 4.78711 5.67188H20.2871C20.486 5.67188 20.6768 5.75089 20.8174 5.89154C20.9581 6.0322 21.0371 6.22296 21.0371 6.42188V13.8279C21.0371 14.0268 20.9581 14.2176 20.8174 14.3582C20.6768 14.4989 20.486 14.5779 20.2871 14.5779H4.78711C4.5882 14.5779 4.39743 14.4989 4.25678 14.3582C4.11613 14.2176 4.03711 14.0268 4.03711 13.8279V6.42188Z" fill="#05112B"/>
</svg>
